<?xml version="1.0" encoding="UTF-8" standalone="no"?>
<!-- Created with Vectornator (http://vectornator.io/) -->

<svg
   height="3.0mm"
   stroke-miterlimit="10"
   style="fill-rule:nonzero;clip-rule:evenodd;stroke-linecap:round;stroke-linejoin:round;"
   version="1.1"
   viewBox="0 0 6.0 3.0"
   width="6.0mm"
   xml:space="preserve"
   id="svg5179"
   sodipodi:docname="Batería.svg"
   inkscape:version="1.1.2 (0a00cf5, 2022-02-04)"
   xmlns:inkscape="http://www.inkscape.org/namespaces/inkscape"
   xmlns:sodipodi="http://sodipodi.sourceforge.net/DTD/sodipodi-0.dtd"
   xmlns:xlink="http://www.w3.org/1999/xlink"
   xmlns="http://www.w3.org/2000/svg"
   xmlns:svg="http://www.w3.org/2000/svg"
   xmlns:vectornator="http://vectornator.io"><sodipodi:namedview
   id="namedview5181"
   pagecolor="#505050"
   bordercolor="#eeeeee"
   borderopacity="1"
   inkscape:pageshadow="0"
   inkscape:pageopacity="0"
   inkscape:pagecheckerboard="0"
   showgrid="false"
   inkscape:zoom="18.518519"
   inkscape:cx="18.954"
   inkscape:cy="7.533"
   inkscape:window-width="3375"
   inkscape:window-height="1416"
   inkscape:window-x="65"
   inkscape:window-y="24"
   inkscape:window-maximized="1"
   inkscape:current-layer="svg5179"
   inkscape:document-units="mm" />
<defs
   id="defs5107">
<path
   d="M0.53125 2.40625C0.23654 2.40625 0 2.57898 0 2.8125L0 5.6875C0 5.92102 0.23654 6.125 0.53125 6.125L1.03125 6.125L1.03125 2.40625L0.53125 2.40625Z"
   id="Fill" />
<path
   d="M2.74829 0L15.6425 0C16.3977 0 17.01 0.612269 17.01 1.36754L17.01 7.13746C17.01 7.89273 16.3977 8.505 15.6425 8.505L2.74829 8.505C1.99302 8.505 1.38075 7.89273 1.38075 7.13746L1.38075 1.36754C1.38075 0.612269 1.99302 0 2.74829 0Z"
   id="Fill_2" />
<path
   d="M13.2326 1.32366L15.2442 1.32366C15.4676 1.32366 15.6487 1.55367 15.6487 1.83739L15.6487 6.66761C15.6487 6.95133 15.4676 7.18134 15.2442 7.18134L13.2326 7.18134C13.0092 7.18134 12.8281 6.95133 12.8281 6.66761L12.8281 1.83739C12.8281 1.55367 13.0092 1.32366 13.2326 1.32366Z"
   id="Fill_3" />
<path
   d="M13.2326 1.32366L15.2442 1.32366C15.4676 1.32366 15.6487 1.55367 15.6487 1.83739L15.6487 6.66761C15.6487 6.95133 15.4676 7.18134 15.2442 7.18134L13.2326 7.18134C13.0092 7.18134 12.8281 6.95133 12.8281 6.66761L12.8281 1.83739C12.8281 1.55367 13.0092 1.32366 13.2326 1.32366Z"
   id="Fill_4" />
<path
   d="M9.73357 1.32366L11.7395 1.32366C11.9645 1.32366 12.1468 1.55528 12.1468 1.84099L12.1468 6.66401C12.1468 6.94972 11.9645 7.18134 11.7395 7.18134L9.73357 7.18134C9.50859 7.18134 9.32622 6.94972 9.32622 6.66401L9.32622 1.84099C9.32622 1.55528 9.50859 1.32366 9.73357 1.32366Z"
   id="Fill_5" />
<path
   d="M6.23173 1.32366L8.23766 1.32366C8.46263 1.32366 8.645 1.55528 8.645 1.84099L8.645 6.66401C8.645 6.94972 8.46263 7.18134 8.23766 7.18134L6.23173 7.18134C6.00676 7.18134 5.82439 6.94972 5.82439 6.66401L5.82439 1.84099C5.82439 1.55528 6.00676 1.32366 6.23173 1.32366Z"
   id="Fill_6" />
<mask
   height="3.71875"
   id="StrokeMask"
   maskUnits="userSpaceOnUse"
   width="1.03125"
   x="0"
   y="2.40625"><rect
     fill="#000000"
     height="3.71875"
     stroke="none"
     width="1.03125"
     x="0"
     y="2.40625"
     id="rect5114" /><use
     fill="#ffffff"
     fill-rule="evenodd"
     stroke="none"
     xlink:href="#Fill"
     id="use5116" /></mask><mask
   height="8.505"
   id="StrokeMask_2"
   maskUnits="userSpaceOnUse"
   width="15.6292"
   x="1.38075"
   y="0"><rect
     fill="#000000"
     height="8.505"
     stroke="none"
     width="15.6292"
     x="1.38075"
     y="0"
     id="rect5125" /><use
     fill="#ffffff"
     fill-rule="evenodd"
     stroke="none"
     xlink:href="#Fill_2"
     id="use5127" /></mask><mask
   height="5.85767"
   id="StrokeMask_3"
   maskUnits="userSpaceOnUse"
   width="2.82062"
   x="12.8281"
   y="1.32366"><rect
     fill="#000000"
     height="5.85767"
     stroke="none"
     width="2.82062"
     x="12.8281"
     y="1.32366"
     id="rect5136" /><use
     fill="#ffffff"
     fill-rule="evenodd"
     stroke="none"
     xlink:href="#Fill_3"
     id="use5138" /></mask><mask
   height="5.85767"
   id="StrokeMask_4"
   maskUnits="userSpaceOnUse"
   width="2.82062"
   x="12.8281"
   y="1.32366"><rect
     fill="#000000"
     height="5.85767"
     stroke="none"
     width="2.82062"
     x="12.8281"
     y="1.32366"
     id="rect5147" /><use
     fill="#ffffff"
     fill-rule="evenodd"
     stroke="none"
     xlink:href="#Fill_4"
     id="use5149" /></mask><mask
   height="5.85767"
   id="StrokeMask_5"
   maskUnits="userSpaceOnUse"
   width="2.82062"
   x="9.32622"
   y="1.32366"><rect
     fill="#000000"
     height="5.85767"
     stroke="none"
     width="2.82062"
     x="9.32622"
     y="1.32366"
     id="rect5158" /><use
     fill="#ffffff"
     fill-rule="evenodd"
     stroke="none"
     xlink:href="#Fill_5"
     id="use5160" /></mask><mask
   height="5.85767"
   id="StrokeMask_6"
   maskUnits="userSpaceOnUse"
   width="2.82062"
   x="5.82439"
   y="1.32366"><rect
     fill="#000000"
     height="5.85767"
     stroke="none"
     width="2.82062"
     x="5.82439"
     y="1.32366"
     id="rect5169" /><use
     fill="#ffffff"
     fill-rule="evenodd"
     stroke="none"
     xlink:href="#Fill_6"
     id="use5171" /></mask></defs>


<g
   inkscape:label="[fixed] BG"
   inkscape:groupmode="layer"
   sodipodi:insensitive="true"
   id="g5280"><rect
     x="0"
     y="0"
     width="6.0"
     height="3.0"
     style="fill:#FFFFFF;fill-opacity:1;stroke:none"
     id="rect5278" /></g><g
   inkscape:label="F.Cu"
   inkscape:groupmode="layer"
   id="g5282" /><g
   inkscape:label="F.Mask"
   inkscape:groupmode="layer"
   id="g5284" /><g
   inkscape:label="F.SilkS"
   inkscape:groupmode="layer"
   id="g5286"><g
     id="Capa-2"
     vectornator:layerName="Capa 2"
     style="clip-rule:evenodd;fill-rule:nonzero;stroke-linecap:round;stroke-linejoin:round"
     transform="scale(0.35273369)"><g
       opacity="1"
       id="g5121"><use
         fill="#000000"
         fill-rule="nonzero"
         stroke="none"
         xlink:href="#Fill"
         id="use5112"
         x="0"
         y="0"
         width="100%"
         height="100%" /><mask
         height="3.71875"
         id="mask5503"
         maskUnits="userSpaceOnUse"
         width="1.03125"
         x="0"
         y="2.40625"><rect
           fill="#000000"
           height="3.71875"
           stroke="none"
           width="1.03125"
           x="0"
           y="2.40625"
           id="rect5499" /><use
           fill="#ffffff"
           fill-rule="evenodd"
           stroke="none"
           xlink:href="#Fill"
           id="use5501"
           x="0"
           y="0"
           width="100%"
           height="100%" /></mask><use
         fill="none"
         mask="url(#StrokeMask)"
         stroke="#000000"
         stroke-linecap="butt"
         stroke-linejoin="round"
         stroke-width="0.2"
         xlink:href="#Fill"
         id="use5119"
         x="0"
         y="0"
         width="100%"
         height="100%" /></g><g
       opacity="1"
       id="g5132"><use
         fill="#ffa8a8"
         fill-opacity="0.00869649"
         fill-rule="nonzero"
         stroke="none"
         xlink:href="#Fill_2"
         id="use5123"
         x="0"
         y="0"
         width="100%"
         height="100%" /><mask
         height="8.505"
         id="mask5512"
         maskUnits="userSpaceOnUse"
         width="15.6292"
         x="1.38075"
         y="0"><rect
           fill="#000000"
           height="8.5050001"
           stroke="none"
           width="15.6292"
           x="1.3807499"
           y="0"
           id="rect5508" /><use
           fill="#ffffff"
           fill-rule="evenodd"
           stroke="none"
           xlink:href="#Fill_2"
           id="use5510"
           x="0"
           y="0"
           width="100%"
           height="100%" /></mask><use
         fill="none"
         mask="url(#StrokeMask_2)"
         stroke="#000000"
         stroke-linecap="butt"
         stroke-linejoin="round"
         stroke-width="1.41954"
         xlink:href="#Fill_2"
         id="use5130"
         x="0"
         y="0"
         width="100%"
         height="100%" /></g><g
       opacity="1"
       id="g5143"><use
         fill="#000000"
         fill-rule="nonzero"
         stroke="none"
         xlink:href="#Fill_3"
         id="use5134"
         x="0"
         y="0"
         width="100%"
         height="100%" /><mask
         height="5.85767"
         id="mask5521"
         maskUnits="userSpaceOnUse"
         width="2.82062"
         x="12.8281"
         y="1.32366"><rect
           fill="#000000"
           height="5.8576698"
           stroke="none"
           width="2.8206201"
           x="12.8281"
           y="1.32366"
           id="rect5517" /><use
           fill="#ffffff"
           fill-rule="evenodd"
           stroke="none"
           xlink:href="#Fill_3"
           id="use5519"
           x="0"
           y="0"
           width="100%"
           height="100%" /></mask><use
         fill="none"
         mask="url(#StrokeMask_3)"
         stroke="#000000"
         stroke-linecap="butt"
         stroke-linejoin="round"
         stroke-width="0.2"
         xlink:href="#Fill_3"
         id="use5141"
         x="0"
         y="0"
         width="100%"
         height="100%" /></g><g
       opacity="1"
       id="g5154"><use
         fill="#000000"
         fill-rule="nonzero"
         stroke="none"
         xlink:href="#Fill_4"
         id="use5145"
         x="0"
         y="0"
         width="100%"
         height="100%" /><mask
         height="5.85767"
         id="mask5530"
         maskUnits="userSpaceOnUse"
         width="2.82062"
         x="12.8281"
         y="1.32366"><rect
           fill="#000000"
           height="5.8576698"
           stroke="none"
           width="2.8206201"
           x="12.8281"
           y="1.32366"
           id="rect5526" /><use
           fill="#ffffff"
           fill-rule="evenodd"
           stroke="none"
           xlink:href="#Fill_4"
           id="use5528"
           x="0"
           y="0"
           width="100%"
           height="100%" /></mask><use
         fill="none"
         mask="url(#StrokeMask_4)"
         stroke="#000000"
         stroke-linecap="butt"
         stroke-linejoin="round"
         stroke-width="0.2"
         xlink:href="#Fill_4"
         id="use5152"
         x="0"
         y="0"
         width="100%"
         height="100%" /></g><g
       opacity="1"
       id="g5165"><use
         fill="#000000"
         fill-rule="nonzero"
         stroke="none"
         xlink:href="#Fill_5"
         id="use5156"
         x="0"
         y="0"
         width="100%"
         height="100%" /><mask
         height="5.85767"
         id="mask5539"
         maskUnits="userSpaceOnUse"
         width="2.82062"
         x="9.32622"
         y="1.32366"><rect
           fill="#000000"
           height="5.8576698"
           stroke="none"
           width="2.8206201"
           x="9.3262196"
           y="1.32366"
           id="rect5535" /><use
           fill="#ffffff"
           fill-rule="evenodd"
           stroke="none"
           xlink:href="#Fill_5"
           id="use5537"
           x="0"
           y="0"
           width="100%"
           height="100%" /></mask><use
         fill="none"
         mask="url(#StrokeMask_5)"
         stroke="#000000"
         stroke-linecap="butt"
         stroke-linejoin="round"
         stroke-width="0.2"
         xlink:href="#Fill_5"
         id="use5163"
         x="0"
         y="0"
         width="100%"
         height="100%" /></g><g
       opacity="1"
       id="g5176"><use
         fill="#000000"
         fill-rule="nonzero"
         stroke="none"
         xlink:href="#Fill_6"
         id="use5167"
         x="0"
         y="0"
         width="100%"
         height="100%" /><mask
         height="5.85767"
         id="mask5548"
         maskUnits="userSpaceOnUse"
         width="2.82062"
         x="5.82439"
         y="1.32366"><rect
           fill="#000000"
           height="5.8576698"
           stroke="none"
           width="2.8206201"
           x="5.8243899"
           y="1.32366"
           id="rect5544" /><use
           fill="#ffffff"
           fill-rule="evenodd"
           stroke="none"
           xlink:href="#Fill_6"
           id="use5546"
           x="0"
           y="0"
           width="100%"
           height="100%" /></mask><use
         fill="none"
         mask="url(#StrokeMask_6)"
         stroke="#000000"
         stroke-linecap="butt"
         stroke-linejoin="round"
         stroke-width="0.2"
         xlink:href="#Fill_6"
         id="use5174"
         x="0"
         y="0"
         width="100%"
         height="100%" /></g></g></g></svg>
