<?xml version="1.0" encoding="UTF-8" standalone="no"?>
<!-- Created with Vectornator (http://vectornator.io/) -->

<svg
   height="16.0mm"
   stroke-miterlimit="10"
   style="fill-rule:nonzero;clip-rule:evenodd;stroke-linecap:round;stroke-linejoin:round;"
   version="1.1"
   viewBox="0 0 15.0 16.0"
   width="15.0mm"
   xml:space="preserve"
   id="svg663"
   sodipodi:docname="bunny-01.svg"
   inkscape:version="1.1.2 (0a00cf5, 2022-02-04)"
   xmlns:inkscape="http://www.inkscape.org/namespaces/inkscape"
   xmlns:sodipodi="http://sodipodi.sourceforge.net/DTD/sodipodi-0.dtd"
   xmlns="http://www.w3.org/2000/svg"
   xmlns:svg="http://www.w3.org/2000/svg"
   xmlns:vectornator="http://vectornator.io"><sodipodi:namedview
   id="namedview665"
   pagecolor="#505050"
   bordercolor="#eeeeee"
   borderopacity="1"
   inkscape:pageshadow="0"
   inkscape:pageopacity="0"
   inkscape:pagecheckerboard="0"
   showgrid="false"
   inkscape:zoom="3.3962742"
   inkscape:cx="165.47545"
   inkscape:cy="108.79569"
   inkscape:window-width="3375"
   inkscape:window-height="1416"
   inkscape:window-x="65"
   inkscape:window-y="24"
   inkscape:window-maximized="1"
   inkscape:current-layer="g878"
   inkscape:document-units="mm" />
<defs
   id="defs545"><clipPath
     id="ArtboardFrame-3"><rect
       height="45.360001"
       width="42.525002"
       x="0"
       y="0"
       id="rect547-6" /></clipPath></defs>
<clipPath
   id="ArtboardFrame">
<rect
   height="45.36"
   width="42.525"
   x="0"
   y="0"
   id="rect547" />
</clipPath>

<g
   inkscape:label="[fixed] BG"
   inkscape:groupmode="layer"
   sodipodi:insensitive="true"
   id="g872"><rect
     x="0"
     y="0"
     width="15.0"
     height="16.0"
     style="fill:#FFFFFF;fill-opacity:1;stroke:none"
     id="rect870" /></g><g
   inkscape:label="F.Cu"
   inkscape:groupmode="layer"
   id="g874" /><g
   inkscape:label="F.Mask"
   inkscape:groupmode="layer"
   id="g876" /><g
   inkscape:label="F.SilkS"
   inkscape:groupmode="layer"
   id="g878"><g
     clip-path="url(#ArtboardFrame-3)"
     id="Untitled"
     vectornator:layerName="Untitled"
     style="clip-rule:evenodd;fill-rule:nonzero;stroke-linecap:round;stroke-linejoin:round"
     transform="scale(0.35273369)"><g
       opacity="1"
       id="g660"><g
         opacity="1"
         id="g552"><path
           d="m 42.525,21.2624 c 0,11.7431 -9.5195,21.2628 -21.2624,21.2628 C 9.51962,42.5252 0,33.0055 0,21.2624 0,9.51962 9.51962,0 21.2626,0 33.0055,-1.12388e-6 42.525,9.51962 42.525,21.2624 Z"
           fill="#000000"
           fill-rule="nonzero"
           opacity="1"
           stroke="none"
           id="path550" /></g><g
         opacity="1"
         id="g658"><g
           opacity="1"
           id="g558"><path
             d="m 25.9647,25.9501 c 0.3842,-1.5611 1.8963,-4.6868 3.45,-4.2813 1.5537,0.4056 3.824,1.9586 1.589,6.107"
             fill="#000000"
             fill-rule="nonzero"
             opacity="1"
             stroke="none"
             id="path554" /><path
             d="m 31.0033,28.2225 c -0.0715,0 -0.144,-0.0172 -0.2115,-0.0536 -0.2171,-0.1169 -0.2983,-0.3878 -0.1813,-0.6049 0.8754,-1.6248 1.1025,-2.9464 0.6751,-3.9284 -0.4509,-1.0354 -1.5375,-1.4182 -1.9838,-1.5347 -0.1999,-0.0522 -0.4127,-0.0089 -0.6505,0.1327 -1.003,0.5974 -1.9529,2.6042 -2.253,3.8232 -0.0589,0.2395 -0.3013,0.386 -0.5403,0.3269 -0.2395,-0.0589 -0.3858,-0.3008 -0.3269,-0.5403 0.3342,-1.358 1.3815,-3.6138 2.6633,-4.3771 0.4475,-0.2664 0.8961,-0.3437 1.333,-0.2296 0.5725,0.1496 1.9697,0.6477 2.577,2.0424 0.5425,1.246 0.3044,2.8302 -0.7077,4.7085 -0.0806,0.1498 -0.2345,0.2349 -0.3934,0.2349 z"
             fill="#ffffff"
             fill-rule="nonzero"
             opacity="1"
             stroke="none"
             id="path556" /></g><g
           opacity="1"
           id="g564"><path
             d="m 16.8105,35.0813 c 0.1548,0.2028 5.0333,11.1956 12.9868,5.5018 6.6173,-4.7371 5.8575,-12.0095 2.4108,-13.7432 -1.6883,-0.8494 -7.9998,-2.4531 -10.8881,0.086"
             fill="#000000"
             fill-rule="nonzero"
             opacity="1"
             stroke="none"
             id="path560" /><path
             d="m 25.3017,42.6644 c -0.5096,0 -1.0157,-0.0609 -1.5183,-0.1829 -2.714,-0.6595 -5.3005,-3.1567 -7.2828,-7.032 -0.0304,-0.0592 -0.0518,-0.102 -0.0649,-0.1254 -0.1259,-0.1939 -0.083,-0.4552 0.1039,-0.5979 0.196,-0.1496 0.4762,-0.1119 0.6259,0.0841 0.0343,0.0449 0.0546,0.0847 0.1302,0.2326 1.8621,3.64 4.2411,5.9736 6.6986,6.5706 1.782,0.433 3.6468,-0.036 5.5431,-1.3935 3.2538,-2.3293 5.0468,-5.6431 4.7962,-8.8646 -0.1493,-1.9201 -1.0189,-3.4591 -2.3261,-4.1166 -0.704,-0.3542 -2.6384,-0.9881 -4.8326,-1.1818 -1.7372,-0.1531 -4.1119,-0.0689 -5.5601,1.2042 -0.1852,0.1628 -0.4673,0.1447 -0.6302,-0.0405 -0.1628,-0.1854 -0.1447,-0.4674 0.0405,-0.6303 1.6856,-1.4816 4.3172,-1.5916 6.2283,-1.4231 2.0891,0.1844 4.1749,0.7803 5.1555,1.2736 1.5889,0.7993 2.6413,2.6106 2.8152,4.8454 0.275,3.5358 -1.6564,7.147 -5.1668,9.6599 -1.5971,1.1433 -3.191,1.7181 -4.7556,1.7182 z m -8.8628,-7.3355 c 0.0068,0.0106 0.0127,0.0181 0.0166,0.0233 -0.0058,-0.0077 -0.0114,-0.0154 -0.0166,-0.0233 z"
             fill="#ffffff"
             fill-rule="nonzero"
             opacity="1"
             stroke="none"
             id="path562" /></g><g
           opacity="1"
           id="g588"><g
             opacity="1"
             id="g572"><path
               d="m 11.2663,17.9021 c 0,0 -1.89706,-13.21014 4.7123,-13.14055 4.3848,0.04644 3.5475,11.35125 3.5475,11.35125"
               fill="#000000"
               fill-rule="nonzero"
               opacity="1"
               stroke="none"
               id="path566" /><path
               d="m 11.2718,17.665 c -0.217,0 -0.4074,-0.1584 -0.4409,-0.3795 -0.0502,-0.3301 -1.19478,-8.12216 1.7094,-11.46516 0.8806,-1.01362 2.037,-1.52087 3.4431,-1.5053 0.7974,0.00841 1.4939,0.33077 2.0702,0.95808 2.4914,2.71126 1.9424,10.54068 1.9179,10.87268 -0.0183,0.2459 -0.2326,0.4303 -0.4783,0.4123 -0.2459,-0.0182 -0.4306,-0.2323 -0.4124,-0.4782 0.0058,-0.0774 0.5461,-7.7753 -1.685,-10.20276 -0.4084,-0.44442 -0.8734,-0.6632 -1.4218,-0.66904 -0.0171,-1.9e-4 -0.0342,-2.4e-4 -0.0512,-2.4e-4 -1.1215,0 -2.0076,0.39205 -2.7077,1.19763 -2.6344,3.03119 -1.5128,10.66911 -1.5012,10.74591 0.037,0.2438 -0.1307,0.4715 -0.3745,0.5085 -0.0228,0.0034 -0.0453,0.0051 -0.0676,0.0051 z"
               fill="#ffffff"
               fill-rule="nonzero"
               opacity="1"
               stroke="none"
               id="path568" /><path
               d="M 14.9531,8.56019 C 12.6024,8.7088 14.0792,16.1925 14.0792,16.1925 l 3.5115,-1.0277 C 17.2551,10.0094 16.9633,8.43327 14.9531,8.56019 Z"
               fill="#ffffff"
               fill-rule="nonzero"
               opacity="1"
               stroke="none"
               id="path570" /></g><path
             d="M 9.16835,33.5044 C 2.54923,23.5496 9.38198,18.1037 11.6912,16.5113 c 2.3092,-1.5922 9.8281,-6.0429 16.78,3.6827 1.2239,1.7123 2.2328,6.649 -5.8245,12.2049 -8.0574,5.556 -12.3129,2.8583 -13.47835,1.1055 z"
             fill="#000000"
             fill-rule="nonzero"
             opacity="1"
             stroke="none"
             id="path574" /><path
             d="m 14.0218,36.1708 c -1.093,0 -2.0968,-0.2041 -2.9966,-0.6106 C 9.74927,34.9841 9.08111,34.1798 8.79644,33.7518 5.87759,29.3618 5.08027,25.3687 6.42666,21.8832 7.21921,19.8313 8.7447,18.0162 10.9607,16.488 c 0.2031,-0.14 0.4811,-0.0889 0.6211,0.1141 0.14,0.203 0.0889,0.4811 -0.1141,0.6211 -3.93741,2.7154 -7.46801,7.7013 -1.92758,16.034 0.24426,0.3674 1.51068,2.0214 4.46828,2.0216 0.3589,0 0.7421,-0.0243 1.1521,-0.0782 0.0095,-0.0013 1.2219,-0.1783 3.1023,-1.1084 0.2211,-0.1094 0.4889,-0.0188 0.5983,0.2022 0.1093,0.2211 0.0188,0.489 -0.2023,0.5983 -2.0259,1.0022 -3.3261,1.1859 -3.3804,1.1932 -0.4306,0.0565 -0.8498,0.0849 -1.2566,0.0849 z"
             fill="#ffffff"
             fill-rule="nonzero"
             opacity="1"
             stroke="none"
             id="path576" /><path
             d="m 25.8721,29.7361 c -0.1508,0 -0.2979,-0.0764 -0.3819,-0.2147 -0.1281,-0.2106 -0.0611,-0.4854 0.1496,-0.6135 1.2089,-0.7349 2.2661,-2.4866 2.345,-2.6192 1.7247,-3.3041 0.4052,-5.44 0.123,-5.835 -5.0296,-7.0365 -10.3786,-6.5136 -13.9802,-4.8359 -0.2234,0.1043 -0.4892,0.0074 -0.5933,-0.2162 -0.1042,-0.2235 -0.0074,-0.4892 0.2162,-0.5933 2.3028,-1.0728 4.5833,-1.3989 6.7784,-0.9692 3.0463,0.5962 5.8407,2.647 8.3055,6.0952 0.9723,1.3606 1.4661,3.8559 -0.0636,6.7785 -0.0031,0.006 -0.0064,0.0118 -0.0098,0.0177 -0.0487,0.0837 -1.2115,2.0616 -2.6573,2.9405 -0.0725,0.0441 -0.1525,0.0651 -0.2316,0.0651 z"
             fill="#ffffff"
             fill-rule="nonzero"
             opacity="1"
             stroke="none"
             id="path578" /><g
             opacity="1"
             id="g586"><path
               d="m 6.88353,25.9314 c 0,0 -10.39112,-10.0902 -4.66682,-14.4139 3.79757,-2.86812 9.35739,5.4817 9.35739,5.4817"
               fill="#000000"
               fill-rule="nonzero"
               opacity="1"
               stroke="none"
               id="path580" /><path
               d="m 6.48302,25.9826 c -0.11204,0 -0.22418,-0.0419 -0.31098,-0.126 C 5.90813,25.6004 -0.288312,19.5284 0.0104641,14.694 0.0995522,13.2533 0.751277,12.0647 1.9475,11.1611 c 0.79226,-0.5984 1.7022,-0.8158 2.70493,-0.6465 3.50639,0.592 7.03327,5.813 7.18167,6.035 0.1371,0.2049 0.082,0.4822 -0.1229,0.6193 -0.205,0.1372 -0.4823,0.0821 -0.6194,-0.1228 C 11.0575,16.995 7.63022,11.9225 4.503,11.3951 3.74186,11.2668 3.08216,11.4234 2.48582,11.8738 1.49326,12.6235 0.975164,13.564 0.901929,14.7491 0.628148,19.1779 6.73234,25.1557 6.79405,25.2156 6.97106,25.3873 6.97529,25.67 6.80348,25.847 6.71595,25.9373 6.59953,25.9826 6.48302,25.9826 Z"
               fill="#ffffff"
               fill-rule="nonzero"
               opacity="1"
               stroke="none"
               id="path582" /><path
               d="M 3.85487,15.4608 C 1.93403,17.1475 8.16606,22.597 8.16606,22.597 L 10.5011,19.3853 C 6.79376,15.1789 5.4978,14.0186 3.85487,15.4608 Z"
               fill="#ffffff"
               fill-rule="nonzero"
               opacity="1"
               stroke="none"
               id="path584" /></g></g><g
           opacity="1"
           id="g594"><path
             d="m 18.4577,34.4707 c 0.5873,-1.4963 2.4989,-4.3949 3.9855,-3.7878 1.4866,0.6075 3.5317,2.4471 0.7679,6.2635"
             fill="#000000"
             fill-rule="nonzero"
             opacity="1"
             stroke="none"
             id="path590" /><path
             d="m 23.2108,37.393 c -0.0908,0 -0.1824,-0.0275 -0.2616,-0.0848 -0.1998,-0.1447 -0.2444,-0.4239 -0.0998,-0.6236 1.0825,-1.4948 1.4823,-2.7749 1.1884,-3.8046 -0.3101,-1.0862 -1.3365,-1.6091 -1.7635,-1.7837 -0.1914,-0.0781 -0.408,-0.0632 -0.6623,0.0457 -1.0731,0.4594 -2.2799,2.3231 -2.7385,3.4918 -0.0901,0.2297 -0.3492,0.3426 -0.5789,0.2527 -0.2295,-0.0902 -0.3426,-0.3494 -0.2525,-0.5789 0.5109,-1.3019 1.8471,-3.3995 3.2184,-3.9866 0.4787,-0.2049 0.9335,-0.2222 1.3516,-0.0516 0.5479,0.2239 1.867,0.9024 2.2845,2.3654 0.3731,1.3067 -0.0723,2.8455 -1.3237,4.5736 -0.0874,0.1206 -0.2239,0.1846 -0.3621,0.1846 z"
             fill="#ffffff"
             fill-rule="nonzero"
             opacity="1"
             stroke="none"
             id="path592" /></g><g
           opacity="1"
           id="g610"><path
             d="m 31.9568,28.3413 c 0,0 -1.8526,-3.6515 0.329,-5.2198 2.1815,-1.5686 5.1745,1.6751 5.2553,4.9762 0.0748,3.0546 -2.1547,4.9951 -3.4227,4.4846"
             fill="#000000"
             fill-rule="nonzero"
             opacity="1"
             stroke="none"
             id="path596" /><path
             d="m 34.7945,33.1552 c -0.2253,0 -0.4189,-0.17 -0.4434,-0.3991 -0.0263,-0.2452 0.1511,-0.4653 0.3963,-0.4916 0.8517,-0.0914 2.4147,-1.4042 2.3474,-4.1559 -0.0472,-1.9236 -1.2141,-3.9923 -2.6566,-4.7097 -0.6955,-0.3459 -1.332,-0.3171 -1.8917,0.0852 -1.8495,1.3296 -0.2081,4.6219 -0.1914,4.6551 0.1116,0.22 0.0237,0.4888 -0.1962,0.6003 -0.2199,0.1118 -0.4886,0.0237 -0.6002,-0.1961 -0.0828,-0.1631 -1.9975,-4.0131 0.4664,-5.7844 0.8257,-0.5937 1.824,-0.6505 2.8108,-0.1596 1.7414,0.8658 3.0962,3.2249 3.1518,5.4873 0.0787,3.2173 -1.8301,4.9248 -3.145,5.0659 -0.0162,0.0018 -0.0323,0.0026 -0.0482,0.0026 z"
             fill="#ffffff"
             fill-rule="nonzero"
             opacity="1"
             stroke="none"
             id="path598" /><g
             opacity="1"
             id="g608"><path
               d="m 33.2864,25.9522 c 0.2989,0.2899 1.0399,0.3114 1.4701,-0.1319 0.4299,-0.4433 0.386,-1.1832 0.0872,-1.4731 -0.1495,-0.1449 -0.3717,-0.1865 -0.6101,-0.1358 -0.2391,0.05 -0.4083,0.7057 -0.4083,0.7057 0,0 -0.6501,0.1892 -0.6932,0.4292 -0.0428,0.24 0.0052,0.4611 0.1543,0.6059 z"
               fill="#ffffff"
               fill-rule="nonzero"
               opacity="1"
               stroke="none"
               id="path600" /><path
               d="m 33.1596,24.7636 c 0.1402,0.1358 0.3638,0.1326 0.4997,-0.0073 0.136,-0.1403 0.1325,-0.3639 -0.0074,-0.4999 -0.1402,-0.1359 -0.364,-0.1325 -0.4998,0.0074 -0.1359,0.1401 -0.1324,0.3639 0.0075,0.4998 z"
               fill="#ffffff"
               fill-rule="nonzero"
               opacity="1"
               stroke="none"
               id="path602" /><path
               d="m 33.8445,24.1059 c 0.1034,0.1004 0.2689,0.098 0.3694,-0.0056 0.1005,-0.1035 0.0979,-0.2692 -0.0057,-0.3695 -0.1032,-0.1007 -0.2688,-0.098 -0.3693,0.0055 -0.1006,0.1035 -0.0981,0.269 0.0056,0.3696 z"
               fill="#ffffff"
               fill-rule="nonzero"
               opacity="1"
               stroke="none"
               id="path604" /><path
               d="m 32.6511,25.3357 c 0.1035,0.1006 0.2692,0.098 0.3696,-0.0054 0.1005,-0.1036 0.0979,-0.269 -0.0058,-0.3697 -0.1034,-0.1003 -0.2688,-0.0979 -0.3694,0.0058 -0.1005,0.1035 -0.0978,0.269 0.0056,0.3693 z"
               fill="#ffffff"
               fill-rule="nonzero"
               opacity="1"
               stroke="none"
               id="path606" /></g></g><g
           opacity="1"
           id="g626"><path
             d="m 26.1337,36.4293 c 0,0 -1.2676,-3.8934 1.1297,-5.1067 2.3972,-1.2133 4.8544,2.4528 4.4254,5.7269 -0.3971,3.0298 -2.8992,4.6031 -4.0734,3.9033"
             fill="#000000"
             fill-rule="nonzero"
             opacity="1"
             stroke="none"
             id="path612" /><path
             d="m 28.3303,41.63 c -0.0294,0 -0.0583,-7e-4 -0.087,-0.002 -0.2463,-0.0119 -0.4365,-0.2211 -0.4247,-0.4674 0.0118,-0.2463 0.2208,-0.4354 0.4674,-0.4248 0.8578,0.0405 2.6024,-1.0153 2.9601,-3.7443 0.2499,-1.9078 -0.5842,-4.1317 -1.8988,-5.0629 -0.634,-0.4489 -1.2672,-0.5189 -1.8822,-0.2075 -2.0324,1.0286 -0.9184,4.5346 -0.9068,4.57 0.0763,0.2344 -0.0519,0.4864 -0.2864,0.5628 -0.2347,0.0764 -0.4865,-0.0519 -0.5629,-0.2864 -0.0565,-0.1738 -1.3548,-4.2731 1.3527,-5.6433 0.9073,-0.4593 1.9024,-0.3614 2.8017,0.2755 1.5871,1.1241 2.5622,3.6639 2.2682,5.9078 -0.4091,3.1216 -2.4751,4.5224 -3.8013,4.5225 z"
             fill="#ffffff"
             fill-rule="nonzero"
             opacity="1"
             stroke="none"
             id="path614" /><g
             opacity="1"
             id="g624"><path
               d="m 27.8156,34.2738 c 0.2507,0.3325 0.9795,0.468 1.4729,0.0963 0.4931,-0.3716 0.5638,-1.1096 0.3133,-1.442 -0.1253,-0.1662 -0.3385,-0.2415 -0.582,-0.2283 -0.2439,0.0127 -0.5122,0.6344 -0.5122,0.6344 0,0 -0.6715,0.0866 -0.751,0.3171 -0.0793,0.2304 -0.0659,0.4563 0.059,0.6225 z"
               fill="#ffffff"
               fill-rule="nonzero"
               opacity="1"
               stroke="none"
               id="path616" /><path
               d="m 27.8736,33.0799 c 0.1175,0.1557 0.3391,0.187 0.4949,0.0697 0.156,-0.1176 0.187,-0.3392 0.0697,-0.495 -0.1176,-0.1559 -0.3392,-0.187 -0.495,-0.0697 -0.1559,0.1174 -0.187,0.339 -0.0696,0.495 z"
               fill="#ffffff"
               fill-rule="nonzero"
               opacity="1"
               stroke="none"
               id="path618" /><path
               d="m 28.6516,32.5355 c 0.0867,0.1153 0.2506,0.1383 0.3659,0.0514 0.1153,-0.0868 0.1383,-0.2508 0.0514,-0.3659 -0.0866,-0.1154 -0.2506,-0.1383 -0.3658,-0.0515 -0.1154,0.0868 -0.1383,0.2507 -0.0515,0.366 z"
               fill="#ffffff"
               fill-rule="nonzero"
               opacity="1"
               stroke="none"
               id="path620" /><path
               d="m 27.2829,33.5667 c 0.0869,0.1154 0.2508,0.1382 0.3659,0.0515 0.1154,-0.0867 0.1384,-0.2507 0.0516,-0.366 -0.0869,-0.1152 -0.2507,-0.1382 -0.3659,-0.0514 -0.1152,0.0869 -0.1381,0.2508 -0.0516,0.3659 z"
               fill="#ffffff"
               fill-rule="nonzero"
               opacity="1"
               stroke="none"
               id="path622" /></g></g><g
           opacity="1"
           id="g632"><path
             d="m 20.5213,43.6266 c 1.076,1.4107 3.092,1.6822 4.5029,0.6062 1.4108,-1.0762 1.6821,-3.0923 0.6061,-4.5031 -1.0762,-1.4107 -3.0921,-1.6821 -4.503,-0.606 -1.4109,1.0761 -1.6822,3.0921 -0.606,4.5029 z"
             fill="#000000"
             fill-rule="nonzero"
             opacity="1"
             stroke="none"
             id="path628" /><path
             d="m 23.0802,45.3361 c -1.1034,0 -2.1947,-0.4957 -2.9139,-1.4387 -0.9149,-1.1992 -1.0046,-2.8101 -0.2285,-4.1035 0.1269,-0.2115 0.4011,-0.2801 0.6127,-0.1531 0.2115,0.1268 0.28,0.4011 0.1531,0.6126 -0.5867,0.9779 -0.5189,2.1956 0.1727,3.1024 0.9251,1.2127 2.6643,1.4469 3.8771,0.5219 0.5784,-0.4412 0.9546,-1.0806 1.0595,-1.8001 0.0355,-0.2442 0.2621,-0.4129 0.5062,-0.3776 0.2441,0.0356 0.4131,0.2623 0.3775,0.5063 -0.1387,0.9519 -0.6365,1.7977 -1.4015,2.3815 -0.6613,0.5044 -1.4412,0.7483 -2.2149,0.7483 z"
             fill="#ffffff"
             fill-rule="nonzero"
             opacity="1"
             stroke="none"
             id="path630" /></g><path
           d="m 22.2972,41.8786 c -0.0815,0 -0.164,-0.0224 -0.2381,-0.0692 -0.128,-0.0809 -3.1512,-2.0101 -4.4688,-4.4605 -0.1167,-0.2172 -0.0353,-0.4881 0.1819,-0.6047 0.2173,-0.117 0.488,-0.0355 0.6048,0.1817 1.2052,2.2415 4.13,4.11 4.1594,4.1286 0.2083,0.1319 0.2705,0.4076 0.1386,0.616 -0.0849,0.1344 -0.2298,0.2081 -0.3778,0.2081 z"
           fill="#ffffff"
           fill-rule="nonzero"
           opacity="1"
           stroke="none"
           id="path634" /><g
           opacity="1"
           id="g656"><g
             opacity="1"
             id="g642"><path
               d="m 23.4355,22.6579 c 0.2233,0.274 0.1657,1.1105 -0.3821,1.5566 -0.5479,0.4463 -1.3789,0.3338 -1.6021,0.0599 -0.2229,-0.274 0.0403,-0.8577 0.5882,-1.3043 0.5479,-0.4464 1.1731,-0.5863 1.396,-0.3122 z"
               fill="#ffffff"
               fill-rule="nonzero"
               opacity="1"
               stroke="none"
               id="path636" /><path
               d="m 22.1992,26.8287 c -0.5756,0 -0.9335,-0.4399 -1.1571,-0.7147 l -0.0185,-0.0226 c -0.1113,-0.1366 -0.0908,-0.3374 0.0458,-0.4489 0.1365,-0.1112 0.3373,-0.0906 0.4487,0.0458 l 0.0188,0.023 c 0.3244,0.3988 0.5586,0.6868 1.197,0.2826 0.1643,-0.1041 0.264,-0.258 0.2966,-0.4576 0.0715,-0.4396 -0.1777,-1.048 -0.6839,-1.6692 -0.1112,-0.1366 -0.0907,-0.3376 0.0458,-0.4488 0.1366,-0.1113 0.3376,-0.0908 0.4488,0.0458 0.6303,0.7737 0.9211,1.5461 0.8189,2.1747 -0.0622,0.3819 -0.2645,0.691 -0.5849,0.894 -0.3371,0.2135 -0.6269,0.2959 -0.876,0.2959 z"
               fill="#ffffff"
               fill-rule="nonzero"
               opacity="1"
               stroke="none"
               id="path638" /><path
               d="m 24.3346,25.2429 c -0.0159,0 -0.032,-3e-4 -0.048,-10e-4 -0.5744,-0.0243 -1.2304,-0.4843 -1.9499,-1.367 -0.1112,-0.1365 -0.0908,-0.3374 0.0457,-0.4488 0.1366,-0.1111 0.3376,-0.0907 0.4488,0.0458 0.7858,0.9641 1.266,1.1235 1.4823,1.1326 0.138,0.0058 0.2535,-0.044 0.363,-0.1572 0.5253,-0.5438 0.2902,-0.8317 -0.0352,-1.2302 L 24.6232,23.195 c -0.1113,-0.1365 -0.0908,-0.3375 0.0457,-0.4488 0.1366,-0.1114 0.3373,-0.0909 0.4487,0.0456 l 0.0178,0.0217 c 0.3212,0.3934 0.919,1.1255 -2e-4,2.0771 -0.2235,0.2311 -0.4994,0.3523 -0.8006,0.3523 z"
               fill="#ffffff"
               fill-rule="nonzero"
               opacity="1"
               stroke="none"
               id="path640" /></g><g
             opacity="1"
             id="g648"><path
               d="m 22.0986,20.6948 c 0.8849,1.1931 2.3028,1.6407 3.1669,1 0.8642,-0.641 0.8471,-2.1278 -0.0379,-3.3211 -0.8851,-1.193 -2.303,-1.6407 -3.1671,-0.9998 -0.864,0.641 -0.8471,2.1278 0.0381,3.3209 z"
               fill="#ffffff"
               fill-rule="nonzero"
               opacity="1"
               stroke="none"
               id="path644" /><path
               d="m 24.5335,18.2716 c 0.2838,0.3827 0.2594,0.8817 -0.0546,1.1146 -0.314,0.2329 -0.7986,0.1114 -1.0824,-0.2713 -0.2838,-0.3827 -0.2594,-0.8817 0.0546,-1.1146 0.3139,-0.2328 0.7986,-0.1114 1.0824,0.2713 z"
               fill="#000000"
               fill-rule="nonzero"
               opacity="1"
               stroke="none"
               id="path646" /></g><g
             opacity="1"
             id="g654"><path
               d="m 18.1376,23.7004 c 0.939,1.2658 0.7943,2.9639 -0.3231,3.7929 -1.1175,0.8288 -2.7846,0.4746 -3.7236,-0.7912 -0.9389,-1.2659 -0.7942,-2.9642 0.3233,-3.793 1.1173,-0.8289 2.7844,-0.4746 3.7234,0.7913 z"
               fill="#ffffff"
               fill-rule="nonzero"
               opacity="1"
               stroke="none"
               id="path650" /><path
               d="m 17.1918,23.581 c 0.3012,0.406 0.2162,0.9793 -0.1897,1.2804 -0.4062,0.3013 -0.9794,0.2162 -1.2805,-0.1899 -0.3013,-0.4061 -0.2164,-0.9793 0.1898,-1.2803 0.406,-0.3013 0.9792,-0.2163 1.2804,0.1898 z"
               fill="#000000"
               fill-rule="nonzero"
               opacity="1"
               stroke="none"
               id="path652" /></g></g></g></g></g></g></svg>
