<?xml version="1.0" encoding="UTF-8" standalone="no"?>
<!-- Created with Vectornator (http://vectornator.io/) -->

<svg
   height="2.700000047683716mm"
   stroke-miterlimit="10"
   style="fill-rule:nonzero;clip-rule:evenodd;stroke-linecap:round;stroke-linejoin:round;"
   version="1.1"
   viewBox="0 0 10.40999984741211 2.700000047683716"
   width="10.40999984741211mm"
   xml:space="preserve"
   id="svg4707"
   sodipodi:docname="Firma François.svg"
   inkscape:version="1.1.2 (0a00cf5, 2022-02-04)"
   xmlns:inkscape="http://www.inkscape.org/namespaces/inkscape"
   xmlns:sodipodi="http://sodipodi.sourceforge.net/DTD/sodipodi-0.dtd"
   xmlns="http://www.w3.org/2000/svg"
   xmlns:svg="http://www.w3.org/2000/svg"
   xmlns:vectornator="http://vectornator.io"><sodipodi:namedview
   id="namedview4709"
   pagecolor="#505050"
   bordercolor="#eeeeee"
   borderopacity="1"
   inkscape:pageshadow="0"
   inkscape:pageopacity="0"
   inkscape:pagecheckerboard="0"
   showgrid="false"
   inkscape:zoom="30.189159"
   inkscape:cx="25.47272"
   inkscape:cy="5.6477227"
   inkscape:window-width="3375"
   inkscape:window-height="1416"
   inkscape:window-x="65"
   inkscape:window-y="24"
   inkscape:window-maximized="1"
   inkscape:current-layer="g4736"
   inkscape:document-units="mm" />
<defs
   id="defs4696" />
<clipPath
   id="ArtboardFrame">
<rect
   height="7.6545"
   width="29.5124"
   x="0"
   y="0"
   id="rect4698" />
</clipPath>


<g
   inkscape:label="[fixed] BG"
   inkscape:groupmode="layer"
   sodipodi:insensitive="true"
   id="g4730"><rect
     x="0"
     y="0"
     width="10.40999984741211"
     height="2.700000047683716"
     style="fill:#FFFFFF;fill-opacity:1;stroke:none"
     id="rect4728" /></g><g
   inkscape:label="F.Cu"
   inkscape:groupmode="layer"
   id="g4732" /><g
   inkscape:label="F.Mask"
   inkscape:groupmode="layer"
   id="g4734" /><g
   inkscape:label="F.SilkS"
   inkscape:groupmode="layer"
   id="g4736"
   style="display:inline"><g
     id="Capa-2"
     vectornator:layerName="Capa 2"
     style="clip-rule:evenodd;fill-rule:nonzero;stroke-linecap:round;stroke-linejoin:round"
     transform="matrix(0.35273309,0,0,0.37378049,0,-0.12671499)"><path
       d="M 6.25262,0.34375 C 5.88446,0.34375 5.51931,0.351 5.12715,0.375 4.73498,0.399 4.35457,0.428 3.97041,0.5 3.58625,0.572 3.21043,0.6765 2.84494,0.8125 2.47946,0.9485 2.10746,1.151 1.782,1.375 1.56324,1.52433 1.39725,1.675 1.25052,1.875 1.1038,2.075 1.03168,2.35225 1.03168,2.65625 1.03168,2.83758 1.0767,2.981 1.15673,3.125 1.23677,3.269 1.33864,3.404 1.46936,3.5 1.60009,3.596 1.74431,3.66808 1.90705,3.71875 2.06978,3.76942 2.24185,3.78125 2.40726,3.78125 2.67937,3.78125 2.9148,3.72633 3.15757,3.625 3.40034,3.52367 3.62735,3.39208 3.8141,3.21875 4.00084,3.04542 4.1424,2.83108 4.25178,2.59375 c 0.10938,-0.23733 0.15631,-0.478 0.15631,-0.75 1e-5,-0.03733 0.00267,-0.08767 0,-0.125 -0.00266,-0.03733 0,-0.08233 0,-0.125 H 4.31431 c 0.00533,0.02667 0,0.06175 0,0.09375 0,0.032 0,0.09758 0,0.15625 C 4.3143,2.09975 4.28262,2.30533 4.18925,2.5 4.09588,2.69467 3.9509,2.864 3.78283,3 3.61476,3.136 3.4236,3.24317 3.18883,3.3125 2.95407,3.38183 2.68471,3.40625 2.40726,3.40625 2.27387,3.40625 2.1529,3.407 2.00084,3.375 1.84877,3.343 1.69121,3.29075 1.56315,3.21875 1.4351,3.14675 1.33589,3.0495 1.25052,2.9375 1.16515,2.8255 1.12547,2.68592 1.12547,2.53125 1.12547,2.30192 1.18233,2.1055 1.31305,1.9375 1.44377,1.7695 1.62576,1.62267 1.84452,1.5 2.06328,1.37733 2.31472,1.2675 2.59484,1.1875 2.87495,1.1075 3.16608,1.048 3.4702,1 3.77433,0.952 4.07804,0.924917 4.37683,0.90625 4.67562,0.887583 4.9389,0.875 5.18967,0.875 c 0.35215,0 0.7188,0.020583 1.06295,0.03125 0.34414,0.010667 0.67953,0 1.03168,0 V 0.9375 C 6.93749,1.00683 6.62652,1.11133 6.34641,1.25 6.06629,1.38867 5.82552,1.55 5.59609,1.75 5.36666,1.95 5.15491,2.1815 4.97083,2.4375 4.78675,2.6935 4.59409,2.97725 4.43936,3.28125 H 4.0642 V 3.375 H 4.40809 C 4.24803,3.631 4.08129,3.91475 3.90789,4.21875 3.73448,4.52275 3.52998,4.80383 3.31389,5.0625 3.0978,5.32117 2.86695,5.51417 2.59484,5.6875 2.32272,5.86083 2.01443,5.96875 1.65694,5.96875 1.52355,5.96875 1.37324,5.93558 1.25052,5.90625 1.12781,5.87692 1.03126,5.84525 0.937892,5.78125 0.84452,5.71725 0.775074,5.63792 0.719051,5.53125 0.663027,5.42458 0.635933,5.27433 0.625262,5.125 0.726637,5.11433 0.796083,5.072 0.844103,5 0.892124,4.928 0.906629,4.86125 0.906629,4.78125 0.906629,4.65858 0.86161,4.56667 0.781577,4.5 0.701544,4.43333 0.617592,4.40625 0.500209,4.40625 0.356149,4.40625 0.215756,4.44783 0.125052,4.5625 0.0343486,4.67717 0,4.81942 0,4.96875 c -3.97531e-7,0.19733 0.046936,0.36133 0.156315,0.5 0.10938,0.13867 0.243686,0.25842 0.40642,0.34375 C 0.72547,5.89783 0.904795,5.96 1.09421,6 c 0.18941,0.04 0.3714,0.0625 0.53147,0.0625 0.4642,0 0.86711,-0.06942 1.21926,-0.21875 C 3.19709,5.69442 3.53398,5.498 3.8141,5.25 4.09421,5.002 4.33765,4.70033 4.56441,4.375 c 0.22676,-0.32533 0.4431,-0.65333 0.65652,-1 0.05336,0 0.11022,0.00533 0.18758,0 C 5.48588,3.36967 5.57592,3.34908 5.65862,3.34375 5.74132,3.33842 5.83136,3.3205 5.90872,3.3125 5.98609,3.3045 6.04295,3.32317 6.0963,3.3125 5.95224,3.5365 5.80726,3.75733 5.68988,4 5.5725,4.24267 5.49388,4.48867 5.40851,4.75 H 5.47104 C 5.55641,4.542 5.65295,4.33758 5.78367,4.15625 c 0.13072,-0.18133 0.27762,-0.34 0.43768,-0.5 0.16007,-0.16 0.32147,-0.29617 0.50021,-0.4375 0.17874,-0.14133 0.3554,-0.30417 0.53148,-0.4375 -0.14406,0 -0.29096,0.02592 -0.43769,0.03125 -0.14673,0.00533 -0.29362,-0.01067 -0.43768,0 C 6.33498,2.9245 6.27546,3.03508 6.19009,3.09375 6.10472,3.15242 6.01277,3.19208 5.90872,3.21875 5.80468,3.24542 5.71081,3.24733 5.59609,3.25 5.48138,3.25267 5.35357,3.27058 5.2522,3.28125 5.31623,3.15858 5.38567,3.00642 5.47104,2.84375 c 0.08537,-0.16267 0.20859,-0.332 0.31263,-0.5 0.10404,-0.168 0.19258,-0.33733 0.31263,-0.5 C 6.21635,1.68108 6.364,1.53425 6.50272,1.40625 6.64145,1.27825 6.79101,1.17108 6.9404,1.09375 7.0898,1.01642 7.24395,1 7.40935,1 7.58009,1 7.74682,0.986667 7.90956,1 8.07229,1.01333 8.2131,1.03125 8.37851,1.03125 c 0.22943,0 0.39616,-0.00917 0.50021,-0.0625 C 8.98276,0.915417 9.03503,0.840667 9.03503,0.75 9.03503,0.643333 9.0026,0.542667 8.94124,0.5 8.87988,0.457333 8.80393,0.442833 8.65987,0.4375 8.54782,0.432167 8.40093,0.416917 8.22219,0.40625 8.04345,0.395583 7.84429,0.388333 7.62819,0.375 7.4121,0.361667 7.17517,0.354417 6.9404,0.34375 c -0.23476,-0.010667 -0.46903,0 -0.68778,0 z M 27.1051,1.375 c -0.1227,0 -0.2193,0.04233 -0.3126,0.125 -0.0934,0.08267 -0.1251,0.18983 -0.1251,0.3125 0,0.12267 0.0397,0.21992 0.1251,0.28125 0.0853,0.06133 0.1639,0.09375 0.2813,0.09375 0.1067,0 0.2273,-0.037 0.3127,-0.125 0.0853,-0.088 0.125,-0.20583 0.125,-0.3125 0,-0.10133 -0.0477,-0.17533 -0.125,-0.25 -0.0774,-0.07467 -0.18,-0.125 -0.2814,-0.125 z M 9.75408,3.03125 C 9.60468,3.03658 9.47763,3.05717 9.37892,3.0625 9.28022,3.06783 9.19818,3.07508 9.12882,3.09375 9.05946,3.11242 8.99193,3.12158 8.94124,3.15625 8.89055,3.19092 8.84362,3.25383 8.78493,3.3125 8.74758,3.34983 8.70865,3.38683 8.62861,3.4375 8.54858,3.48817 8.43336,3.56025 8.31598,3.65625 8.1986,3.75225 8.06696,3.87925 7.90956,4.03125 7.75216,4.18325 7.58084,4.37433 7.37809,4.625 H 7.34682 L 8.40977,3.125 7.50314,3.15625 C 7.22569,3.63625 6.93915,4.0985 6.65904,4.5625 6.37892,5.0265 6.11831,5.49942 5.8462,5.96875 H 6.62777 C 6.74516,5.75008 6.88747,5.51325 7.03419,5.28125 7.18092,5.04925 7.32973,4.81242 7.50314,4.59375 7.67655,4.37508 7.86313,4.16608 8.06588,3.96875 8.26862,3.77142 8.49831,3.61808 8.7224,3.46875 8.64237,3.59142 8.62861,3.73633 8.62861,3.875 c 0,0.21867 0.0336,0.388 0.15632,0.5 0.12271,0.112 0.31805,0.15625 0.53147,0.15625 0.18423,0 0.33797,-0.08717 0.50021,-0.15625 C 9.80511,4.39475 9.7964,4.41745 9.78534,4.4375 9.64128,4.69883 9.59777,4.95742 9.59777,5.21875 c 0,0.112 0.00458,0.23975 0.03126,0.34375 0.02668,0.104 0.06903,0.19858 0.12505,0.28125 0.05603,0.08267 0.12814,0.1395 0.21884,0.1875 0.09068,0.048 0.18458,0.0625 0.31268,0.0625 0.2401,0 0.4797,-0.0595 0.6877,-0.1875 0.2081,-0.128 0.3974,-0.28208 0.5628,-0.46875 -0.0107,0.02133 0.0053,0.05642 0,0.09375 -0.0054,0.03733 -0.0313,0.08233 -0.0313,0.125 0,0.128 0.063,0.2245 0.1563,0.3125 0.0934,0.088 0.2045,0.125 0.3752,0.125 0.2454,0 0.5022,-0.05608 0.7503,-0.21875 0.2481,-0.16267 0.4942,-0.40025 0.7503,-0.65625 -0.1542,0.25233 -0.3155,0.49532 -0.4689,0.75 h 0.8128 c 0.0694,-0.13333 0.164,-0.31333 0.2814,-0.5 0.1174,-0.18667 0.2597,-0.3625 0.4064,-0.5625 0.1467,-0.2 0.3035,-0.425 0.4689,-0.625 0.1654,-0.2 0.3402,-0.37392 0.5003,-0.53125 0.16,-0.15733 0.2936,-0.27633 0.4376,-0.375 0.1441,-0.09867 0.2685,-0.15625 0.3752,-0.15625 0.0747,0 0.1502,0.02517 0.1876,0.0625 0.0373,0.03733 0.0312,0.09758 0.0312,0.15625 0,0.12267 -0.0416,0.24092 -0.1563,0.40625 C 16.2984,4.00908 16.1767,4.191 16.038,4.375 15.8992,4.559 15.7463,4.7455 15.6315,4.9375 15.5168,5.1295 15.4752,5.31867 15.4752,5.5 c 0,0.144 0.0603,0.263 0.1563,0.375 0.0961,0.112 0.235,0.1875 0.4377,0.1875 0.2081,0 0.3993,-0.06483 0.594,-0.1875 0.1948,-0.12267 0.4416,-0.33167 0.7191,-0.625 0.1095,-0.11456 0.2092,-0.22798 0.3126,-0.34375 -0.0095,0.06404 -0.0625,0.12278 -0.0625,0.1875 0,0.336 0.0793,0.57667 0.2501,0.75 0.1494,0.15167 0.3927,0.19979 0.6565,0.21875 -0.0162,0.02595 -0.0032,0.05082 -0.0313,0.09375 -0.04,0.06133 -0.0823,0.11817 -0.125,0.1875 -0.0427,0.06933 -0.0904,0.12883 -0.1251,0.1875 -0.0346,0.05867 -0.0625,0.10367 -0.0625,0.125 0,0.03733 0.0252,0.0625 0.0625,0.0625 0.0427,0 0.0977,-0.02058 0.1564,-0.03125 0.0586,-0.01067 0.1128,0 0.1875,0 0.0801,0 0.1728,0.0225 0.2501,0.0625 0.0774,0.04 0.1251,0.12733 0.1251,0.25 0,0.08 -0.0252,0.13683 -0.0625,0.1875 -0.0374,0.05067 -0.1003,0.09567 -0.1564,0.125 -0.056,0.02933 -0.1155,0.02325 -0.1875,0.03125 -0.0721,0.008 -0.1236,0.03125 -0.1876,0.03125 -0.096,0 -0.1933,-0.01258 -0.2814,-0.03125 -0.088,-0.01867 -0.1781,-0.0385 -0.2501,-0.0625 -0.072,-0.024 -0.1369,-0.04117 -0.1876,-0.0625 C 17.613,7.19742 17.5859,7.1875 17.5699,7.1875 c -0.0214,0 -0.0466,-0.008 -0.0626,0 -0.016,0.008 -0.0312,0.0305 -0.0312,0.0625 0,0.04267 0.053,0.08767 0.125,0.125 0.072,0.03733 0.1487,0.06442 0.2501,0.09375 0.1014,0.02933 0.2059,0.0465 0.3127,0.0625 0.1067,0.016 0.212,0.03125 0.2813,0.03125 0.1174,0 0.2059,-0.01258 0.3126,-0.03125 0.1068,-0.01867 0.23,-0.04842 0.3127,-0.09375 0.0827,-0.04533 0.1369,-0.11283 0.1876,-0.1875 0.0506,-0.07467 0.0625,-0.16925 0.0625,-0.28125 0,-0.176 -0.047,-0.30033 -0.1563,-0.375 C 19.0549,6.51908 18.9126,6.5 18.7578,6.5 c -0.0373,0 -0.0663,-0.00267 -0.125,0 -0.0587,0.00267 -0.119,-0.01067 -0.1563,0 0.0373,-0.09067 0.1029,-0.17 0.1563,-0.25 0.0447,-0.06703 0.0804,-0.12047 0.125,-0.1875 0.2869,-0.01615 0.552,-0.03625 0.8129,-0.15625 0.3014,-0.13867 0.58,-0.31792 0.8441,-0.53125 0.1967,-0.15889 0.3853,-0.34721 0.5627,-0.53125 -0.0216,0.10595 -0.0938,0.20294 -0.0938,0.3125 0,0.29333 0.1053,0.5195 0.2814,0.6875 0.1761,0.168 0.3943,0.25 0.6878,0.25 0.2774,0 0.5567,-0.05225 0.8128,-0.15625 0.2561,-0.104 0.4797,-0.22758 0.6878,-0.40625 0.2081,-0.17867 0.3848,-0.38767 0.5315,-0.625 0.1467,-0.23733 0.2486,-0.48333 0.3126,-0.75 0.0747,0.096 0.1594,0.16542 0.2501,0.21875 0.0907,0.05333 0.1899,0.0625 0.3127,0.0625 0.1328,0 0.259,-0.06125 0.3751,-0.125 -0.108,0.1745 -0.2093,0.34075 -0.2813,0.46875 -0.0961,0.17067 -0.1789,0.32283 -0.2189,0.4375 -0.04,0.11467 -0.0625,0.20583 -0.0625,0.3125 0,0.15467 0.0603,0.279 0.1563,0.375 0.096,0.096 0.2303,0.15625 0.4064,0.15625 0.1868,0 0.4039,-0.06483 0.6253,-0.1875 0.1589,-0.08803 0.3585,-0.28459 0.5627,-0.46875 0.0156,0.08847 0.052,0.18145 0.0938,0.25 0.0667,0.10933 0.1407,0.18333 0.2501,0.25 0.1094,0.06667 0.2391,0.12692 0.3752,0.15625 0.136,0.02933 0.2677,0.03125 0.4064,0.03125 0.2368,0 0.421,-0.07965 0.6252,-0.125 V 5.9375 c 0.0801,-0.016 0.1781,-0.04308 0.2502,-0.09375 0.072,-0.05067 0.1288,-0.11283 0.1875,-0.1875 0.0587,-0.07467 0.0904,-0.154 0.1251,-0.25 0.0347,-0.096 0.0625,-0.21117 0.0625,-0.3125 0,-0.16 -0.0271,-0.28892 -0.0938,-0.40625 C 28.539,4.57017 28.4669,4.45042 28.3869,4.34375 28.3068,4.23708 28.2347,4.11467 28.168,4 28.1013,3.88533 28.0742,3.77433 28.0742,3.625 c 0,-0.13867 0.0451,-0.25042 0.1251,-0.34375 0.08,-0.09333 0.1945,-0.15625 0.3439,-0.15625 0.1227,0 0.1887,0.045 0.2501,0.125 0.0614,0.08 0.0938,0.17458 0.0938,0.28125 0,0.10133 -0.0073,0.2085 -0.0313,0.3125 -0.024,0.104 -0.0663,0.20583 -0.125,0.3125 0.0267,0.01067 0.0537,0.02325 0.0938,0.03125 0.04,0.008 0.1083,0 0.1563,0 0.1547,0 0.2738,-0.05758 0.3751,-0.15625 0.1014,-0.09867 0.1564,-0.22033 0.1564,-0.375 C 29.5123,3.45358 29.4044,3.29683 29.231,3.1875 29.0576,3.07817 28.8618,3.03125 28.6057,3.03125 c -0.144,0 -0.2989,0.02517 -0.4377,0.0625 -0.1387,0.03733 -0.2631,0.07892 -0.3751,0.15625 -0.1121,0.07733 -0.1808,0.16925 -0.2501,0.28125 -0.0694,0.112 -0.1251,0.25692 -0.1251,0.40625 0,0.05473 0.018,0.10418 0.0313,0.15625 -0.0713,0.08315 -0.1618,0.18101 -0.2501,0.28125 -0.0563,0.06386 -0.127,0.12104 -0.1876,0.1875 -0.0427,-0.01302 -0.0719,-0.03125 -0.125,-0.03125 -0.0961,0 -0.1781,0.01717 -0.2502,0.0625 C 26.5641,4.63908 26.4966,4.68067 26.4486,4.75 26.4005,4.81933 26.3788,4.91467 26.3548,5 c -0.024,0.08533 -0.0625,0.16467 -0.0625,0.25 0,0.02249 -0.0014,0.04101 0,0.0625 -0.1687,0.15453 -0.3422,0.32637 -0.469,0.40625 -0.1947,0.12267 -0.3622,0.1875 -0.4689,0.1875 -0.0481,0 -0.0698,-0.0225 -0.0938,-0.0625 -0.024,-0.04 -0.0313,-0.09225 -0.0313,-0.15625 0,-0.08 0.0065,-0.18717 0.0625,-0.3125 0.0561,-0.12533 0.1667,-0.30267 0.2814,-0.5 0.1147,-0.19733 0.2563,-0.4075 0.4377,-0.6875 0.1814,-0.28 0.4057,-0.63658 0.6565,-1.03125 L 25.8233,3.1875 c -0.2401,0.37333 -0.4339,0.71542 -0.594,0.96875 -0.0153,0.02422 -0.0165,0.03904 -0.0313,0.0625 -0.128,0.08533 -0.2936,0.125 -0.4376,0.125 -0.1494,0 -0.2506,-0.029 -0.3439,-0.125 C 24.3231,4.12275 24.2556,3.9725 24.2289,3.8125 24.1915,3.59383 24.0817,3.40467 23.9163,3.25 23.7509,3.09533 23.5479,3.03125 23.2597,3.03125 c -0.2667,0 -0.5666,0.07283 -0.8441,0.1875 -0.2774,0.11467 -0.5209,0.24283 -0.7503,0.4375 -0.2294,0.19467 -0.4187,0.42883 -0.5627,0.6875 -0.0662,0.11881 -0.058,0.25113 -0.0938,0.375 -0.1267,0.1312 -0.2649,0.24975 -0.4064,0.375 C 20.3703,5.29908 20.1421,5.481 19.8833,5.625 19.6245,5.769 19.3632,5.84375 19.1017,5.84375 18.883,5.84375 18.693,5.76633 18.5703,5.625 18.4475,5.48367 18.3827,5.29642 18.3827,5.09375 c 0,-0.256 0.0809,-0.48142 0.1876,-0.71875 0.1067,-0.23733 0.2204,-0.47225 0.3751,-0.65625 0.1548,-0.184 0.3242,-0.32817 0.5002,-0.4375 0.1761,-0.10933 0.3303,-0.15625 0.469,-0.15625 0.0747,0 0.1449,0.04042 0.1876,0.09375 0.0426,0.05333 0.0625,0.12808 0.0625,0.21875 0,0.128 -0.0199,0.247 -0.0625,0.375 -0.0427,0.128 -0.0877,0.25233 -0.1251,0.375 0.0534,0.01067 0.1182,0 0.1876,0 0.08,0 0.1388,-0.00192 0.2188,-0.03125 0.0801,-0.02933 0.1548,-0.069 0.2189,-0.125 0.064,-0.056 0.1163,-0.13608 0.1563,-0.21875 0.04,-0.08267 0.0625,-0.17992 0.0625,-0.28125 0,-0.144 -0.0748,-0.24508 -0.2188,-0.34375 -0.1441,-0.09867 -0.3173,-0.15625 -0.5628,-0.15625 -0.2667,0 -0.5613,0.07017 -0.8441,0.1875 C 18.9127,3.33608 18.6487,3.4955 18.414,3.6875 18.1792,3.8795 18.0006,4.09842 17.8512,4.34375 17.7831,4.45562 17.7945,4.57341 17.7574,4.6875 17.6392,4.82256 17.5126,4.95439 17.3823,5.09375 17.0888,5.40308 16.8679,5.63533 16.6945,5.75 16.5211,5.86467 16.394,5.90625 16.3193,5.90625 c -0.0747,0 -0.1243,-0.0225 -0.1563,-0.0625 -0.032,-0.04 -0.0625,-0.09225 -0.0625,-0.15625 0,-0.14933 0.0728,-0.29542 0.1876,-0.46875 0.1147,-0.17333 0.2364,-0.37317 0.3751,-0.5625 0.1387,-0.18933 0.2605,-0.37317 0.3752,-0.5625 0.1147,-0.18933 0.1876,-0.38117 0.1876,-0.5625 0,-0.144 -0.0657,-0.24508 -0.1564,-0.34375 -0.0907,-0.09867 -0.199,-0.15625 -0.3751,-0.15625 -0.2081,0 -0.4172,0.0595 -0.6253,0.1875 -0.2081,0.128 -0.4126,0.29808 -0.594,0.46875 -0.1814,0.17067 -0.3588,0.324 -0.5002,0.5 -0.1414,0.176 -0.2379,0.31025 -0.3126,0.40625 L 15.6941,3.125 14.7874,3.15625 C 14.51,3.64158 14.2288,4.13242 13.9433,4.59375 13.872,4.70908 13.7957,4.82167 13.7245,4.9375 13.6731,4.99217 13.6189,5.04308 13.5682,5.09375 13.3281,5.33908 13.0991,5.53817 12.8804,5.6875 12.6616,5.83683 12.477,5.90625 12.3489,5.90625 c -0.1334,0 -0.1876,-0.05417 -0.1876,-0.1875 0,-0.096 0.0065,-0.20775 0.0626,-0.34375 0.056,-0.136 0.1281,-0.28017 0.2188,-0.4375 0.0907,-0.15733 0.2033,-0.332 0.3126,-0.5 0.1094,-0.168 0.206,-0.34267 0.3127,-0.5 C 13.1747,3.78017 13.2899,3.636 13.3806,3.5 13.4713,3.364 13.5514,3.25225 13.5994,3.15625 l -0.8441,0.0625 -0.1875,0.3125 c -0.0694,-0.17067 -0.1747,-0.295 -0.2814,-0.375 -0.1067,-0.08 -0.2509,-0.125 -0.4377,-0.125 -0.2454,0 -0.5121,0.05683 -0.7816,0.1875 C 10.7977,3.34942 10.5668,3.53933 10.3481,3.75 10.1786,3.91321 10.035,4.08762 9.9104,4.28125 9.83837,4.31325 9.76626,4.34375 9.69156,4.34375 9.46213,4.34375 9.34766,4.22933 9.34766,4 c 0,-0.18133 0.03968,-0.34267 0.12505,-0.5 0.08537,-0.15733 0.18,-0.32475 0.28137,-0.46875 z M 11.9112,3.125 c 0.1548,0 0.2593,0.045 0.3127,0.125 0.0533,0.08 0.0938,0.19975 0.0938,0.34375 0,0.10133 -0.0172,0.22833 -0.0626,0.375 -0.0453,0.14667 -0.1102,0.30342 -0.1876,0.46875 -0.0773,0.16533 -0.1773,0.30608 -0.2813,0.46875 -0.1041,0.16267 -0.1979,0.33542 -0.3126,0.46875 -0.1148,0.13333 -0.2525,0.2245 -0.3752,0.3125 -0.1227,0.088 -0.2319,0.15092 -0.3439,0.15625 -0.1654,0 -0.2619,-0.07283 -0.3126,-0.1875 C 10.3912,5.54158 10.3481,5.40467 10.3481,5.25 c 0,-0.10667 0.0198,-0.22833 0.0625,-0.375 0.0427,-0.14667 0.1129,-0.30875 0.1876,-0.46875 0.0747,-0.16 0.146,-0.31675 0.2501,-0.46875 0.104,-0.152 0.2292,-0.28358 0.3439,-0.40625 C 11.3069,3.40858 11.4107,3.32467 11.5361,3.25 11.6615,3.17533 11.7885,3.125 11.9112,3.125 Z m 11.286,0 c 0.1227,0 0.2254,0.05033 0.2814,0.125 0.056,0.07467 0.0938,0.17917 0.0938,0.3125 0,0.112 -0.0511,0.24092 -0.0938,0.40625 -0.0427,0.16533 -0.079,0.34992 -0.1563,0.53125 -0.0774,0.18133 -0.1774,0.34992 -0.2814,0.53125 -0.1041,0.18133 -0.2212,0.356 -0.3439,0.5 C 22.5743,5.67525 22.4552,5.78433 22.3218,5.875 22.1885,5.96567 22.0488,6 21.9154,6 21.7927,6 21.6901,5.98092 21.6341,5.90625 21.578,5.83158 21.5715,5.72708 21.5715,5.59375 c 0,-0.112 0.0199,-0.27217 0.0626,-0.4375 0.0426,-0.16533 0.1102,-0.31867 0.1875,-0.5 C 21.899,4.47492 21.9677,4.27508 22.0717,4.09375 22.1758,3.91242 22.2929,3.769 22.4156,3.625 22.5383,3.481 22.6574,3.34067 22.7908,3.25 22.9242,3.15933 23.0638,3.125 23.1972,3.125 Z m 4.283,1.09375 c 0.0104,0.02152 0.0185,0.04147 0.0313,0.0625 0.0667,0.10933 0.1388,0.20583 0.2189,0.3125 0.08,0.10667 0.1521,0.22908 0.2188,0.34375 0.0667,0.11467 0.125,0.23633 0.125,0.375 0,0.10133 -0.0457,0.19592 -0.0937,0.28125 C 27.9324,5.67908 27.8702,5.75117 27.7929,5.8125 27.7155,5.87383 27.6415,5.93675 27.5428,5.96875 27.4441,6.00075 27.3574,6 27.2614,6 27.1067,6 26.9697,5.971 26.855,5.875 26.7403,5.779 26.6674,5.64933 26.6674,5.5 c 0,-0.05867 0.0126,-0.1315 0.0313,-0.1875 0.0186,-0.056 0.0358,-0.10825 0.0625,-0.15625 0.048,0.02667 0.1182,0.0625 0.1876,0.0625 0.0853,0 0.1548,-0.03508 0.2188,-0.09375 0.064,-0.05867 0.0938,-0.138 0.0938,-0.25 0,-0.09067 -0.0271,-0.18067 -0.0938,-0.25 -0.0067,-0.00693 -0.024,0.00624 -0.0312,0 0.0259,-0.02862 0.0369,-0.06497 0.0625,-0.09375 0.0966,-0.1086 0.1957,-0.21264 0.2813,-0.3125 z"
       fill="#000000"
       fill-rule="nonzero"
       opacity="1"
       stroke="none"
       id="path4704" /></g></g></svg>
