<?xml version="1.0" encoding="UTF-8" standalone="no"?>
<!-- Created with Vectornator (http://vectornator.io/) -->

<svg
   height="2.700000047683716mm"
   stroke-miterlimit="10"
   style="fill-rule:nonzero;clip-rule:evenodd;stroke-linecap:round;stroke-linejoin:round;"
   version="1.1"
   viewBox="0 0 22.0 2.700000047683716"
   width="22.0mm"
   xml:space="preserve"
   id="svg4236"
   sodipodi:docname="Firma.svg"
   inkscape:version="1.1.2 (0a00cf5, 2022-02-04)"
   xmlns:inkscape="http://www.inkscape.org/namespaces/inkscape"
   xmlns:sodipodi="http://sodipodi.sourceforge.net/DTD/sodipodi-0.dtd"
   xmlns="http://www.w3.org/2000/svg"
   xmlns:svg="http://www.w3.org/2000/svg"
   xmlns:vectornator="http://vectornator.io"><sodipodi:namedview
   id="namedview4238"
   pagecolor="#505050"
   bordercolor="#eeeeee"
   borderopacity="1"
   inkscape:pageshadow="0"
   inkscape:pageopacity="0"
   inkscape:pagecheckerboard="0"
   showgrid="false"
   inkscape:zoom="20.20202"
   inkscape:cx="31.185"
   inkscape:cy="3.83625"
   inkscape:window-width="3375"
   inkscape:window-height="1416"
   inkscape:window-x="65"
   inkscape:window-y="24"
   inkscape:window-maximized="1"
   inkscape:current-layer="svg4236"
   inkscape:document-units="mm" />
<defs
   id="defs4225"><clipPath
     id="ArtboardFrame-5"><rect
       height="7.6545"
       width="62.369999"
       x="0"
       y="0"
       id="rect4227-9" /></clipPath></defs>
<clipPath
   id="ArtboardFrame">
<rect
   height="7.6545"
   width="62.37"
   x="0"
   y="0"
   id="rect4227" />
</clipPath>


<g
   inkscape:label="[fixed] BG"
   inkscape:groupmode="layer"
   sodipodi:insensitive="true"
   id="g4259"><rect
     x="0"
     y="0"
     width="22.0"
     height="2.700000047683716"
     style="fill:#FFFFFF;fill-opacity:1;stroke:none"
     id="rect4257" /></g><g
   inkscape:label="F.Cu"
   inkscape:groupmode="layer"
   id="g4261" /><g
   inkscape:label="F.Mask"
   inkscape:groupmode="layer"
   id="g4263" /><g
   inkscape:label="F.SilkS"
   inkscape:groupmode="layer"
   id="g4265"
   style="display:inline"><g
     clip-path="url(#ArtboardFrame-5)"
     id="Capa-2"
     vectornator:layerName="Capa 2"
     transform="matrix(0.39241953,0,0,0.35702479,-1.1649955,0)"
     style="clip-rule:evenodd;fill-rule:nonzero;stroke-linecap:round;stroke-linejoin:round"><path
       d="m 38.625,-0.40625 c -0.1867,0.053333 -0.3282,0.165833 -0.4375,0.3125 -0.1093,0.1466667 -0.1563,0.328583 -0.1563,0.53125 1e-4,0.08 0.018,0.134167 0.0313,0.1875 0.0133,0.053333 0.0152,0.128833 0.0313,0.1875 -0.24,0.133333 -0.4815,0.2615 -0.7188,0.4375 -0.2373,0.176 -0.4642,0.37775 -0.6562,0.59375 -0.192,0.216 -0.3488,0.46008 -0.4688,0.71875 -0.12,0.25867 -0.1563,0.54508 -0.1563,0.84375 0,0.34133 0.0893,0.59917 0.2813,0.8125 0.192,0.21333 0.4605,0.34375 0.8125,0.34375 0.1493,0 0.2908,-0.0225 0.4375,-0.0625 0.1467,-0.04 0.3015,-0.09225 0.4375,-0.15625 0.136,-0.064 0.2497,-0.13342 0.375,-0.21875 0.1253,-0.08533 0.2683,-0.18525 0.375,-0.28125 C 38.6792,4.04642 38.5323,4.28058 38.375,4.53125 38.2177,4.78192 38.0358,5.03133 37.8437,5.25 37.6517,5.46867 37.4534,5.63458 37.2188,5.78125 36.9841,5.92792 36.7255,6 36.4375,6 36.3202,6 36.2031,6.01333 36.0937,6 35.9844,5.98667 35.8978,5.94892 35.8125,5.90625 35.7272,5.86358 35.6444,5.80142 35.5937,5.71875 35.5431,5.63608 35.5312,5.51367 35.5312,5.375 c 1e-4,-0.04267 -0.008,-0.08767 0,-0.125 0.0081,-0.03733 0.026,-0.05642 0.0313,-0.09375 0.192,-0.04267 0.2812,-0.14183 0.2812,-0.3125 1e-4,-0.14933 -0.0396,-0.25383 -0.1249,-0.3125 -0.0854,-0.05867 -0.18,-0.09375 -0.2813,-0.09375 -0.1813,0 -0.3289,0.05417 -0.4063,0.1875 -0.0773,0.13333 -0.0937,0.29808 -0.0937,0.46875 0,0.18667 0.037,0.33808 0.125,0.46875 0.088,0.13067 0.2077,0.2325 0.3437,0.3125 0.1361,0.08 0.2669,0.15283 0.4375,0.1875 0.1707,0.03467 0.34,0.03125 0.5,0.03125 0.2987,0 0.5825,-0.01375 0.8438,-0.09375 0.2613,-0.08 0.4974,-0.1845 0.7187,-0.3125 0.2214,-0.128 0.441,-0.30342 0.625,-0.46875 0.184,-0.16533 0.3301,-0.32933 0.4688,-0.5 0.1387,-0.17067 0.2763,-0.33467 0.375,-0.5 0.0987,-0.16533 0.1708,-0.3095 0.2188,-0.4375 0.0213,-0.05867 0.0636,-0.13608 0.125,-0.21875 0.0613,-0.08267 0.1234,-0.154 0.1874,-0.25 0.064,-0.096 0.1056,-0.18792 0.1563,-0.28125 0.0507,-0.09333 0.0937,-0.18067 0.0937,-0.25 0,-0.05867 -0.0846,-0.09375 -0.25,-0.09375 -0.144,0 -0.2789,0.01983 -0.375,0.0625 -0.0959,0.04267 -0.1833,0.11017 -0.25,0.1875 -0.0666,0.07733 -0.1055,0.14867 -0.1562,0.25 -0.0507,0.10133 -0.1288,0.22642 -0.1875,0.34375 -0.048,0.10133 -0.1174,0.21383 -0.2187,0.3125 -0.1014,0.09867 -0.2185,0.17 -0.3438,0.25 -0.1253,0.08 -0.2417,0.1395 -0.375,0.1875 -0.1333,0.048 -0.263,0.09375 -0.375,0.09375 -0.1333,0 -0.2504,-0.04575 -0.3438,-0.09375 -0.0933,-0.048 -0.16,-0.1075 -0.2187,-0.1875 -0.0587,-0.08 -0.101,-0.17192 -0.125,-0.28125 -0.024,-0.10933 -0.0312,-0.22108 -0.0313,-0.34375 1e-4,-0.224 0.045,-0.46083 0.125,-0.6875 0.08,-0.22667 0.1792,-0.41967 0.3125,-0.625 0.1334,-0.20533 0.2722,-0.41775 0.4375,-0.59375 0.1654,-0.176 0.3347,-0.3095 0.5,-0.4375 0.2347,0.27733 0.4986,0.4505 0.7813,0.5625 0.2827,0.112 0.6007,0.1875 0.9687,0.1875 0.1387,0 0.3134,-0.03583 0.5,-0.0625 0.1867,-0.02667 0.3633,-0.05567 0.5313,-0.125 0.168,-0.06933 0.2916,-0.16125 0.4063,-0.28125 0.1146,-0.12 0.1874,-0.28208 0.1874,-0.46875 C 41.6563,0.6815 41.5338,0.492333 41.3125,0.375 41.0912,0.257667 40.7857,0.1875 40.375,0.1875 40.1937,0.1875 40.0098,0.218 39.8125,0.25 39.6152,0.282 39.4108,0.324333 39.2188,0.375 39.0268,0.425667 38.8323,0.493167 38.6562,0.5625 38.4803,0.631834 38.3315,0.706583 38.1875,0.78125 38.1608,0.722583 38.133,0.6345 38.125,0.5625 c -0.008,-0.072 0,-0.118167 0,-0.1875 0,-0.154667 0.0602,-0.3041667 0.1562,-0.4375 0.096,-0.133333 0.1945,-0.212667 0.3438,-0.25 z m 1.6875,0.71875 c 0.3147,0 0.5416,0.031667 0.6563,0.125 0.1146,0.093333 0.1874,0.215 0.1874,0.375 0,0.122667 -0.0529,0.23442 -0.125,0.34375 -0.0719,0.10933 -0.1559,0.22983 -0.2812,0.3125 -0.1253,0.08267 -0.2981,0.1395 -0.4688,0.1875 -0.1706,0.048 -0.3339,0.0625 -0.5312,0.0625 -0.2987,0 -0.5599,-0.04958 -0.7812,-0.15625 -0.2214,-0.10667 -0.4384,-0.276 -0.625,-0.5 0.112,-0.096 0.2435,-0.187917 0.4062,-0.28125 0.1627,-0.093333 0.3472,-0.178 0.5312,-0.25 0.1841,-0.072 0.3812,-0.113583 0.5626,-0.15625 0.1813,-0.042667 0.3194,-0.0625 0.4687,-0.0625 z M 9.21875,0.34375 c -0.368,0 -0.733,0.00725 -1.125,0.03125 C 7.70175,0.399 7.3215,0.428 6.9375,0.5 6.5535,0.572 6.17783,0.6765 5.8125,0.8125 5.44717,0.9485 5.07533,1.151 4.75,1.375 4.53133,1.52433 4.36542,1.675 4.21875,1.875 4.07208,2.075 4,2.35225 4,2.65625 4,2.83758 4.045,2.981 4.125,3.125 4.205,3.269 4.30683,3.404 4.4375,3.5 4.56817,3.596 4.71233,3.66808 4.875,3.71875 c 0.16267,0.05067 0.33467,0.0625 0.5,0.0625 0.272,0 0.50733,-0.05492 0.75,-0.15625 C 6.36767,3.52367 6.59458,3.39208 6.78125,3.21875 6.96792,3.04542 7.10942,2.83108 7.21875,2.59375 7.32808,2.35642 7.375,2.11575 7.375,1.84375 c 0,-0.03733 0.00267,-0.08767 0,-0.125 -0.00267,-0.03733 0,-0.08233 0,-0.125 H 7.28125 c 0.00533,0.02667 0,0.06175 0,0.09375 0,0.032 0,0.09758 0,0.15625 0,0.256 -0.03167,0.46158 -0.125,0.65625 C 7.06292,2.69467 6.918,2.864 6.75,3 6.582,3.136 6.39092,3.24317 6.15625,3.3125 5.92158,3.38183 5.65233,3.40625 5.375,3.40625 5.24167,3.40625 5.12075,3.407 4.96875,3.375 4.81675,3.343 4.65925,3.29075 4.53125,3.21875 4.40325,3.14675 4.30408,3.0495 4.21875,2.9375 4.13342,2.8255 4.09375,2.68592 4.09375,2.53125 4.09375,2.30192 4.15058,2.1055 4.28125,1.9375 4.41192,1.7695 4.59383,1.62267 4.8125,1.5 5.03117,1.37733 5.2825,1.2675 5.5625,1.1875 5.8425,1.1075 6.1335,1.048 6.4375,1 6.7415,0.952 7.04508,0.924917 7.34375,0.90625 7.64242,0.887583 7.90558,0.875 8.15625,0.875 c 0.352,0 0.7185,0.020583 1.0625,0.03125 0.344,0.010667 0.67925,0 1.03125,0 V 0.9375 C 9.90333,1.00683 9.5925,1.11133 9.3125,1.25 c -0.28,0.13867 -0.52067,0.3 -0.75,0.5 -0.22933,0.2 -0.441,0.4315 -0.625,0.6875 -0.184,0.256 -0.37658,0.53975 -0.53125,0.84375 h -0.375 V 3.375 H 7.375 C 7.215,3.631 7.04833,3.91475 6.875,4.21875 6.70167,4.52275 6.49725,4.80383 6.28125,5.0625 6.06525,5.32117 5.8345,5.51417 5.5625,5.6875 5.2905,5.86083 4.98233,5.96875 4.625,5.96875 4.49167,5.96875 4.34142,5.93558 4.21875,5.90625 4.09608,5.87692 3.99958,5.84525 3.90625,5.78125 3.81292,5.71725 3.7435,5.63792 3.6875,5.53125 3.6315,5.42458 3.60442,5.27433 3.59375,5.125 3.69508,5.11433 3.7645,5.072 3.8125,5 3.8605,4.928 3.875,4.86125 3.875,4.78125 3.875,4.65858 3.83,4.56667 3.75,4.5 3.67,4.43333 3.58608,4.40625 3.46875,4.40625 c -0.144,0 -0.28433,0.04158 -0.375,0.15625 -0.09067,0.11467 -0.125,0.25692 -0.125,0.40625 0,0.19733 0.04692,0.36133 0.15625,0.5 C 3.23433,5.60742 3.36858,5.72717 3.53125,5.8125 3.69392,5.89783 3.87317,5.96 4.0625,6 4.25183,6.04 4.43375,6.0625 4.59375,6.0625 5.05775,6.0625 5.4605,5.99308 5.8125,5.84375 6.1645,5.69442 6.50125,5.498 6.78125,5.25 c 0.28,-0.248 0.52333,-0.54967 0.75,-0.875 0.22667,-0.32533 0.44292,-0.65333 0.65625,-1 0.05333,0 0.11017,0.00533 0.1875,0 C 8.45233,3.36967 8.54233,3.34908 8.625,3.34375 8.70767,3.33842 8.79767,3.3205 8.875,3.3125 c 0.07733,-0.008 0.13417,0.01067 0.1875,0 C 8.9185,3.5365 8.77358,3.75733 8.65625,4 8.53892,4.24267 8.46033,4.48867 8.375,4.75 H 8.4375 C 8.52283,4.542 8.61933,4.33758 8.75,4.15625 c 0.13067,-0.18133 0.2775,-0.34 0.4375,-0.5 0.16,-0.16 0.32133,-0.29617 0.5,-0.4375 0.17867,-0.14133 0.3552,-0.30417 0.5313,-0.4375 -0.144,0 -0.29088,0.02592 -0.43755,0.03125 -0.14667,0.00533 -0.2935,-0.01067 -0.4375,0 C 9.30108,2.9245 9.24158,3.03508 9.15625,3.09375 9.07092,3.15242 8.979,3.19208 8.875,3.21875 8.771,3.24542 8.67717,3.24733 8.5625,3.25 8.44783,3.25267 8.32008,3.27058 8.21875,3.28125 8.28275,3.15858 8.35217,3.00642 8.4375,2.84375 c 0.08533,-0.16267 0.2085,-0.332 0.3125,-0.5 0.104,-0.168 0.1925,-0.33733 0.3125,-0.5 0.12,-0.16267 0.26758,-0.3095 0.40625,-0.4375 0.13867,-0.128 0.28817,-0.23517 0.4375,-0.3125 C 10.0556,1.01642 10.2097,1 10.375,1 c 0.1707,0 0.3373,-0.013333 0.5,0 0.1627,0.01333 0.3034,0.03125 0.4688,0.03125 0.2293,0 0.3959,-0.00917 0.5,-0.0625 C 11.9478,0.915417 12,0.840667 12,0.75 12,0.643333 11.9676,0.542667 11.9063,0.5 11.8449,0.457333 11.769,0.442833 11.625,0.4375 11.513,0.432167 11.3662,0.416917 11.1875,0.40625 11.0088,0.395583 10.8098,0.388333 10.5938,0.375 10.3777,0.361667 10.1409,0.354417 9.90625,0.34375 c -0.23467,-0.010667 -0.46883,0 -0.6875,0 z M 30.0625,1.375 c -0.1227,0 -0.2192,0.04233 -0.3125,0.125 -0.0933,0.08267 -0.125,0.18983 -0.125,0.3125 0,0.12267 0.0397,0.21992 0.125,0.28125 0.0853,0.06133 0.1639,0.09375 0.2812,0.09375 0.1067,0 0.2272,-0.037 0.3125,-0.125 C 30.4291,1.9745 30.4688,1.85667 30.4688,1.75 30.4687,1.64867 30.4211,1.57467 30.3437,1.5 30.2664,1.42533 30.1638,1.375 30.0625,1.375 Z m 26.5937,0 c -0.1226,0 -0.2191,0.04233 -0.3124,0.125 -0.0934,0.08267 -0.1563,0.18983 -0.1563,0.3125 0,0.12267 0.0397,0.21992 0.125,0.28125 0.0853,0.06133 0.1952,0.09375 0.3125,0.09375 0.1067,0 0.1959,-0.037 0.2812,-0.125 0.0854,-0.088 0.125,-0.20583 0.125,-0.3125 C 57.0313,1.64867 57.0148,1.57467 56.9375,1.5 56.8602,1.42533 56.7576,1.375 56.6562,1.375 Z M 12.7188,3.03125 c -0.1494,0.00533 -0.2764,0.02592 -0.375,0.03125 -0.0987,0.00533 -0.1807,0.01258 -0.25,0.03125 -0.0694,0.01867 -0.1369,0.02783 -0.1875,0.0625 -0.0507,0.03467 -0.0976,0.09758 -0.1563,0.15625 -0.0373,0.03733 -0.0763,0.07433 -0.1562,0.125 -0.08,0.05067 -0.1952,0.12275 -0.3125,0.21875 -0.1174,0.096 -0.249,0.223 -0.4063,0.375 -0.1573,0.152 -0.3286,0.34308 -0.5312,0.59375 h -0.0313 l 1.0625,-1.5 -0.9062,0.03125 C 10.1914,3.63625 9.905,4.0985 9.625,4.5625 9.345,5.0265 9.0845,5.49942 8.8125,5.96875 H 9.59375 C 9.71108,5.75008 9.85333,5.51325 10,5.28125 c 0.1467,-0.232 0.2954,-0.46883 0.4688,-0.6875 0.1733,-0.21867 0.3598,-0.42767 0.5625,-0.625 0.2026,-0.19733 0.4322,-0.35067 0.6562,-0.5 -0.08,0.12267 -0.0937,0.26758 -0.0937,0.40625 0,0.21867 0.0335,0.388 0.1562,0.5 0.1227,0.112 0.3179,0.15625 0.5313,0.15625 0.1841,0 0.3378,-0.08717 0.5,-0.15625 -0.0115,0.01975 -0.0203,0.04245 -0.0313,0.0625 -0.144,0.26133 -0.1875,0.51992 -0.1875,0.78125 0,0.112 0.0046,0.23975 0.0313,0.34375 0.0266,0.104 0.069,0.19858 0.125,0.28125 0.056,0.08267 0.128,0.1395 0.2187,0.1875 0.0907,0.048 0.1845,0.0625 0.3125,0.0625 0.24,0 0.4795,-0.0595 0.6875,-0.1875 0.208,-0.128 0.3972,-0.28208 0.5625,-0.46875 -0.0107,0.02133 0.0053,0.05642 0,0.09375 -0.0053,0.03733 -0.0312,0.08233 -0.0312,0.125 -10e-5,0.128 0.0629,0.2245 0.1562,0.3125 0.0933,0.088 0.2043,0.125 0.375,0.125 0.2453,0 0.502,-0.05608 0.75,-0.21875 0.248,-0.16267 0.494,-0.40025 0.75,-0.65625 -0.1542,0.25233 -0.3154,0.49532 -0.4688,0.75 h 0.8126 c 0.0693,-0.13333 0.1639,-0.31333 0.2812,-0.5 0.1173,-0.18667 0.2596,-0.3625 0.4062,-0.5625 0.1467,-0.2 0.3035,-0.425 0.4688,-0.625 0.1653,-0.2 0.34,-0.37392 0.5,-0.53125 0.16,-0.15733 0.2935,-0.27633 0.4375,-0.375 0.144,-0.09867 0.2683,-0.15625 0.375,-0.15625 0.0747,0 0.1502,0.02517 0.1875,0.0625 0.0373,0.03733 0.0312,0.09758 0.0312,0.15625 0,0.12267 -0.0415,0.24092 -0.1562,0.40625 C 19.2603,4.00908 19.1387,4.191 19,4.375 18.8613,4.559 18.7084,4.7455 18.5938,4.9375 18.4791,5.1295 18.4375,5.31867 18.4375,5.5 c 0,0.144 0.0602,0.263 0.1563,0.375 0.096,0.112 0.2348,0.1875 0.4374,0.1875 0.2081,0 0.3991,-0.06483 0.5938,-0.1875 0.1947,-0.12267 0.4414,-0.33167 0.7188,-0.625 0.1094,-0.11456 0.2091,-0.22798 0.3124,-0.34375 -0.0095,0.06404 -0.0624,0.12278 -0.0624,0.1875 -1e-4,0.336 0.0793,0.57667 0.25,0.75 0.1493,0.15167 0.3925,0.19979 0.6562,0.21875 -0.0162,0.02595 -0.0032,0.05082 -0.0312,0.09375 -0.04,0.06133 -0.0824,0.11817 -0.125,0.1875 -0.0427,0.06933 -0.0904,0.12883 -0.125,0.1875 -0.0347,0.05867 -0.0626,0.10367 -0.0626,0.125 1e-4,0.03733 0.0252,0.0625 0.0626,0.0625 0.0426,0 0.0975,-0.02058 0.1562,-0.03125 0.0587,-0.01067 0.1128,0 0.1875,0 0.08,0 0.1727,0.0225 0.25,0.0625 0.0773,0.04 0.125,0.12733 0.125,0.25 0,0.08 -0.0252,0.13683 -0.0625,0.1875 -0.0373,0.05067 -0.1003,0.09567 -0.1562,0.125 -0.056,0.02933 -0.1155,0.02325 -0.1876,0.03125 -0.0719,0.008 -0.1234,0.03125 -0.1874,0.03125 -0.096,0 -0.1933,-0.01258 -0.2813,-0.03125 -0.088,-0.01867 -0.178,-0.0385 -0.25,-0.0625 C 20.7405,7.25725 20.6757,7.24008 20.625,7.21875 20.5743,7.19742 20.5473,7.1875 20.5312,7.1875 c -0.0213,0 -0.0464,-0.008 -0.0624,0 -0.0161,0.008 -0.0313,0.0305 -0.0313,0.0625 0,0.04267 0.053,0.08767 0.125,0.125 0.072,0.03733 0.1487,0.06442 0.25,0.09375 0.1013,0.02933 0.2058,0.0465 0.3125,0.0625 0.1067,0.016 0.2119,0.03125 0.2812,0.03125 0.1174,0 0.2059,-0.01258 0.3126,-0.03125 C 21.8254,7.51258 21.9486,7.48283 22.0312,7.4375 22.1139,7.39217 22.1681,7.32467 22.2188,7.25 22.2694,7.17533 22.2812,7.08075 22.2812,6.96875 22.2813,6.79275 22.2343,6.66842 22.125,6.59375 22.0157,6.51908 21.8734,6.5 21.7188,6.5 c -0.0374,0 -0.0664,-0.00267 -0.125,0 -0.0587,0.00267 -0.119,-0.01067 -0.1563,0 0.0373,-0.09067 0.1029,-0.17 0.1563,-0.25 0.0446,-0.06703 0.0803,-0.12047 0.125,-0.1875 0.2867,-0.01615 0.5517,-0.03625 0.8124,-0.15625 0.3014,-0.13867 0.5798,-0.31792 0.8438,-0.53125 0.1966,-0.15889 0.3851,-0.34721 0.5625,-0.53125 -0.0216,0.10595 -0.0937,0.20294 -0.0937,0.3125 -1e-4,0.29333 0.1052,0.5195 0.2812,0.6875 0.176,0.168 0.3942,0.25 0.6875,0.25 0.2773,0 0.5565,-0.05225 0.8125,-0.15625 0.256,-0.104 0.4795,-0.22758 0.6875,-0.40625 0.208,-0.17867 0.3846,-0.38767 0.5313,-0.625 0.1466,-0.23733 0.2484,-0.48333 0.3125,-0.75 0.0746,0.096 0.1593,0.16542 0.25,0.21875 0.0906,0.05333 0.1898,0.0625 0.3125,0.0625 0.1327,0 0.2589,-0.06125 0.375,-0.125 -0.1081,0.1745 -0.2093,0.34075 -0.2813,0.46875 -0.096,0.17067 -0.1787,0.32283 -0.2187,0.4375 -0.04,0.11467 -0.0625,0.20583 -0.0625,0.3125 0,0.15467 0.0602,0.279 0.1562,0.375 0.096,0.096 0.2303,0.15625 0.4063,0.15625 0.1866,0 0.4036,-0.06483 0.625,-0.1875 0.1588,-0.08803 0.3583,-0.28459 0.5624,-0.46875 0.0156,0.08847 0.052,0.18145 0.0938,0.25 0.0667,0.10933 0.1407,0.18333 0.25,0.25 0.1093,0.06667 0.239,0.12692 0.375,0.15625 0.136,0.02933 0.2676,0.03125 0.4063,0.03125 0.2367,0 0.4208,-0.07965 0.6249,-0.125 V 5.9375 c 0.0801,-0.016 0.178,-0.04308 0.25,-0.09375 0.072,-0.05067 0.1289,-0.11283 0.1876,-0.1875 0.0586,-0.07467 0.0903,-0.154 0.125,-0.25 0.0346,-0.096 0.0625,-0.21117 0.0625,-0.3125 -1e-4,-0.16 -0.0271,-0.28892 -0.0938,-0.40625 C 31.4958,4.57017 31.4238,4.45042 31.3438,4.34375 31.2637,4.23708 31.1917,4.11467 31.125,4 31.0583,3.88533 31.0312,3.77433 31.0312,3.625 c 0,-0.13867 0.045,-0.25042 0.1251,-0.34375 C 31.2362,3.18792 31.3507,3.125 31.5,3.125 c 0.1227,0 0.1887,0.045 0.25,0.125 0.0613,0.08 0.0938,0.17458 0.0938,0.28125 -1e-4,0.10133 -0.0073,0.2085 -0.0313,0.3125 -0.024,0.104 -0.0663,0.20583 -0.125,0.3125 0.0267,0.01067 0.0537,0.02325 0.0937,0.03125 0.04,0.008 0.1083,0 0.1563,0 0.1547,0 0.2737,-0.05758 0.375,-0.15625 0.1013,-0.09867 0.1563,-0.22033 0.1563,-0.375 -1e-4,-0.20267 -0.108,-0.35942 -0.2813,-0.46875 -0.1733,-0.10933 -0.369,-0.15625 -0.625,-0.15625 -0.144,0 -0.2988,0.02517 -0.4375,0.0625 C 30.9863,3.13108 30.862,3.17267 30.75,3.25 30.638,3.32733 30.5693,3.41925 30.5,3.53125 c -0.0693,0.112 -0.125,0.25692 -0.125,0.40625 0,0.05473 0.018,0.10418 0.0313,0.15625 C 30.335,4.1769 30.2446,4.27476 30.1562,4.375 30.1,4.43886 30.0293,4.49604 29.9688,4.5625 29.9261,4.54948 29.8969,4.53125 29.8438,4.53125 c -0.096,0 -0.178,0.01717 -0.25,0.0625 C 29.5218,4.63908 29.4542,4.68067 29.4062,4.75 29.3582,4.81933 29.3365,4.91467 29.3125,5 29.2885,5.08533 29.25,5.16467 29.25,5.25 c 0,0.02249 -0.0013,0.04101 0,0.0625 -0.1686,0.15453 -0.342,0.32636 -0.4688,0.40625 -0.1946,0.12267 -0.362,0.1875 -0.4687,0.1875 -0.048,0 -0.0697,-0.0225 -0.0937,-0.0625 -0.0241,-0.04 -0.0313,-0.09225 -0.0313,-0.15625 0,-0.08 0.0065,-0.18717 0.0625,-0.3125 0.056,-0.12533 0.1666,-0.30267 0.2812,-0.5 0.1147,-0.19733 0.2562,-0.4075 0.4376,-0.6875 0.1813,-0.28 0.4055,-0.63658 0.6562,-1.03125 L 28.7812,3.1875 c -0.2399,0.37333 -0.4337,0.71542 -0.5937,0.96875 -0.0153,0.02422 -0.0165,0.03904 -0.0313,0.0625 -0.128,0.08533 -0.2934,0.125 -0.4374,0.125 -0.1494,0 -0.2505,-0.029 -0.3438,-0.125 C 27.2817,4.12275 27.2142,3.9725 27.1875,3.8125 27.1502,3.59383 27.0403,3.40467 26.875,3.25 26.7097,3.09533 26.5067,3.03125 26.2188,3.03125 c -0.2667,0 -0.5665,0.07283 -0.8438,0.1875 -0.2773,0.11467 -0.5207,0.24283 -0.75,0.4375 -0.2293,0.19467 -0.4185,0.42883 -0.5625,0.6875 -0.0661,0.11881 -0.058,0.25113 -0.0937,0.375 -0.1267,0.1312 -0.2648,0.24975 -0.4063,0.375 -0.232,0.20533 -0.4601,0.38725 -0.7187,0.53125 -0.2587,0.144 -0.52,0.21875 -0.7813,0.21875 -0.2187,0 -0.4086,-0.07742 -0.5313,-0.21875 -0.1226,-0.14133 -0.1874,-0.32858 -0.1874,-0.53125 0,-0.256 0.0808,-0.48142 0.1874,-0.71875 0.1067,-0.23733 0.2204,-0.47225 0.375,-0.65625 0.1547,-0.184 0.324,-0.32817 0.5,-0.4375 0.176,-0.10933 0.3301,-0.15625 0.4688,-0.15625 0.0747,0 0.1448,0.04042 0.1875,0.09375 0.0427,0.05333 0.0625,0.12808 0.0625,0.21875 0,0.128 -0.0198,0.247 -0.0625,0.375 -0.0427,0.128 -0.0877,0.25233 -0.125,0.375 0.0533,0.01067 0.1182,0 0.1875,0 0.08,0 0.1387,-0.00192 0.2188,-0.03125 0.08,-0.02933 0.1547,-0.069 0.2187,-0.125 0.064,-0.056 0.1162,-0.13608 0.1563,-0.21875 0.0399,-0.08267 0.0624,-0.17992 0.0624,-0.28125 1e-4,-0.144 -0.0747,-0.24508 -0.2187,-0.34375 C 23.4185,3.08883 23.2453,3.03125 23,3.03125 c -0.2667,0 -0.5611,0.07017 -0.8438,0.1875 C 21.8736,3.33608 21.6097,3.4955 21.375,3.6875 21.1403,3.8795 20.9618,4.09842 20.8125,4.34375 20.7444,4.45562 20.7558,4.57341 20.7188,4.6875 20.6005,4.82256 20.474,4.95439 20.3438,5.09375 20.0504,5.40308 19.8296,5.63533 19.6562,5.75 c -0.1733,0.11467 -0.3003,0.15625 -0.375,0.15625 -0.0746,0 -0.1242,-0.0225 -0.1562,-0.0625 -0.032,-0.04 -0.0625,-0.09225 -0.0625,-0.15625 0,-0.14933 0.0728,-0.29542 0.1875,-0.46875 0.1147,-0.17333 0.2363,-0.37317 0.375,-0.5625 0.1387,-0.18933 0.2603,-0.37317 0.375,-0.5625 0.1147,-0.18933 0.1875,-0.38117 0.1875,-0.5625 0,-0.144 -0.0656,-0.24508 -0.1563,-0.34375 -0.0906,-0.09867 -0.1989,-0.15625 -0.375,-0.15625 -0.2079,0 -0.417,0.0595 -0.625,0.1875 -0.2079,0.128 -0.4124,0.29808 -0.5937,0.46875 -0.1813,0.17067 -0.3587,0.324 -0.5,0.5 -0.1413,0.176 -0.2378,0.31025 -0.3125,0.40625 L 18.6562,3.125 17.75,3.15625 c -0.2773,0.48533 -0.5584,0.97617 -0.8438,1.4375 -0.0713,0.11533 -0.1475,0.22792 -0.2187,0.34375 -0.0513,0.05467 -0.1056,0.10558 -0.1563,0.15625 -0.2399,0.24533 -0.4688,0.44442 -0.6874,0.59375 -0.2187,0.14933 -0.4033,0.21875 -0.5313,0.21875 -0.1333,0 -0.1875,-0.05417 -0.1875,-0.1875 0,-0.096 0.0065,-0.20775 0.0625,-0.34375 0.056,-0.136 0.1281,-0.28017 0.2187,-0.4375 0.0907,-0.15733 0.2032,-0.332 0.3126,-0.5 0.1093,-0.168 0.2058,-0.34267 0.3124,-0.5 C 16.1379,3.78017 16.2531,3.636 16.3438,3.5 16.4344,3.364 16.5145,3.25225 16.5625,3.15625 l -0.8437,0.0625 -0.1876,0.3125 c -0.0693,-0.17067 -0.1745,-0.295 -0.2812,-0.375 -0.1067,-0.08 -0.2508,-0.125 -0.4375,-0.125 -0.2453,0 -0.5119,0.05683 -0.7812,0.1875 -0.2694,0.13067 -0.5001,0.32058 -0.7188,0.53125 -0.1694,0.16321 -0.3129,0.33762 -0.4375,0.53125 -0.072,0.032 -0.1441,0.0625 -0.2187,0.0625 -0.2294,0 -0.3438,-0.11442 -0.3438,-0.34375 0,-0.18133 0.0397,-0.34267 0.125,-0.5 0.0853,-0.15733 0.1799,-0.32475 0.2813,-0.46875 z M 14.875,3.125 c 0.1547,0 0.2592,0.045 0.3125,0.125 0.0533,0.08 0.0937,0.19975 0.0937,0.34375 0,0.10133 -0.0171,0.22833 -0.0624,0.375 C 15.1734,4.11542 15.1086,4.27217 15.0313,4.4375 14.9539,4.60283 14.854,4.74358 14.75,4.90625 14.646,5.06892 14.5522,5.24167 14.4375,5.375 c -0.1147,0.13333 -0.2523,0.2245 -0.375,0.3125 -0.1227,0.088 -0.2317,0.15092 -0.3437,0.15625 -0.1654,0 -0.2619,-0.07283 -0.3125,-0.1875 C 13.3556,5.54158 13.3125,5.40467 13.3125,5.25 c 0,-0.10667 0.0198,-0.22833 0.0625,-0.375 0.0427,-0.14667 0.1128,-0.30875 0.1875,-0.46875 0.0747,-0.16 0.146,-0.31675 0.25,-0.46875 0.104,-0.152 0.2291,-0.28358 0.3438,-0.40625 C 14.2709,3.40858 14.3747,3.32467 14.5,3.25 14.6253,3.17533 14.7523,3.125 14.875,3.125 Z m 11.2813,0 c 0.1226,0 0.2252,0.05033 0.2812,0.125 0.056,0.07467 0.0937,0.17917 0.0938,0.3125 -1e-4,0.112 -0.0511,0.24092 -0.0938,0.40625 C 26.3948,4.13408 26.3586,4.31867 26.2813,4.5 26.2039,4.68133 26.104,4.84992 26,5.03125 c -0.104,0.18133 -0.2211,0.356 -0.3437,0.5 C 25.5336,5.67525 25.4146,5.78433 25.2812,5.875 25.1479,5.96567 25.0083,6 24.875,6 24.7523,6 24.6498,5.98092 24.5938,5.90625 24.5378,5.83158 24.5312,5.72708 24.5312,5.59375 c 1e-4,-0.112 0.0199,-0.27217 0.0626,-0.4375 0.0426,-0.16533 0.1101,-0.31867 0.1874,-0.5 0.0774,-0.18133 0.1461,-0.38117 0.25,-0.5625 C 25.1353,3.91242 25.2523,3.769 25.375,3.625 25.4977,3.481 25.6167,3.34067 25.75,3.25 25.8833,3.15933 26.0229,3.125 26.1563,3.125 Z m 4.2812,1.09375 c 0.0104,0.02152 0.0184,0.04147 0.0313,0.0625 0.0666,0.10933 0.1387,0.20583 0.2187,0.3125 0.08,0.10667 0.1521,0.22908 0.2188,0.34375 0.0666,0.11467 0.1249,0.23633 0.1249,0.375 1e-4,0.10133 -0.0457,0.19592 -0.0937,0.28125 C 30.8895,5.67908 30.8273,5.75117 30.75,5.8125 30.6727,5.87383 30.5987,5.93675 30.5,5.96875 30.4013,6.00075 30.3147,6 30.2188,6 30.0641,6 29.9272,5.971 29.8125,5.875 29.6978,5.779 29.625,5.64933 29.625,5.5 c 0,-0.05867 0.0126,-0.1315 0.0312,-0.1875 0.0187,-0.056 0.0359,-0.10825 0.0626,-0.15625 0.048,0.02667 0.1181,0.0625 0.1874,0.0625 0.0854,0 0.1548,-0.03508 0.2188,-0.09375 0.064,-0.05867 0.0938,-0.138 0.0938,-0.25 -1e-4,-0.09067 -0.0271,-0.18067 -0.0938,-0.25 -0.0067,-0.00693 -0.024,0.00624 -0.0312,0 0.0258,-0.02862 0.0369,-0.06497 0.0624,-0.09375 0.0966,-0.1086 0.1957,-0.21264 0.2813,-0.3125 z M 42.25,3.03125 c -0.2507,0 -0.5013,0.06483 -0.7812,0.1875 -0.2801,0.12267 -0.5466,0.27142 -0.7813,0.46875 -0.2347,0.19733 -0.4391,0.43683 -0.5937,0.6875 -0.1547,0.25067 -0.2188,0.494 -0.2188,0.75 0,0.288 0.1052,0.53742 0.2812,0.71875 0.1761,0.18133 0.4148,0.25 0.7188,0.25 0.2987,0 0.5988,-0.06217 0.9375,-0.1875 0.3387,-0.12533 0.6945,-0.35683 1.0625,-0.6875 0.0475,-0.04364 0.0799,-0.08207 0.125,-0.125 -0.1719,0.28917 -0.3312,0.58377 -0.5,0.875 h 0.7812 c 0.1174,-0.21867 0.2596,-0.4555 0.4063,-0.6875 0.1467,-0.232 0.2954,-0.46883 0.4687,-0.6875 0.1734,-0.21867 0.3599,-0.42767 0.5625,-0.625 0.2027,-0.19733 0.4323,-0.35067 0.6563,-0.5 -0.08,0.12267 -0.0938,0.26758 -0.0938,0.40625 0,0.21867 0.0336,0.388 0.1563,0.5 0.1227,0.112 0.3179,0.15625 0.5312,0.15625 0.2053,0 0.3846,-0.07041 0.5625,-0.15625 C 46.5248,4.3863 46.5062,4.39514 46.5,4.40625 46.4093,4.56892 46.3293,4.739 46.2812,4.875 c -0.048,0.136 -0.0625,0.26758 -0.0625,0.40625 1e-4,0.288 0.1053,0.47642 0.2813,0.59375 0.176,0.11733 0.3949,0.1875 0.6562,0.1875 0.2721,0 0.5253,-0.05758 0.7813,-0.15625 C 48.1935,5.80758 48.4117,5.668 48.625,5.5 48.8383,5.332 49.0355,5.13025 49.1875,4.90625 49.3395,4.68225 49.436,4.46942 49.5,4.21875 49.596,4.28808 49.7032,4.335 49.8125,4.375 c 0.1093,0.04 0.2317,0.0625 0.3437,0.0625 0.0788,0 0.1446,-0.0434 0.2188,-0.0625 -0.0153,0.02585 -0.048,0.03613 -0.0625,0.0625 -0.144,0.26133 -0.2187,0.51992 -0.2187,0.78125 -1e-4,0.112 0.0045,0.23975 0.0312,0.34375 0.0267,0.104 0.069,0.19858 0.125,0.28125 0.056,0.08267 0.1281,0.1395 0.2187,0.1875 0.0907,0.048 0.2158,0.0625 0.3438,0.0625 0.24,0 0.4483,-0.0595 0.6563,-0.1875 0.208,-0.128 0.3971,-0.28208 0.5624,-0.46875 -0.0106,0.02133 0.0054,0.05642 0,0.09375 C 52.0259,5.56858 52,5.61358 52,5.65625 c 0,0.128 0.0629,0.2245 0.1562,0.3125 0.0934,0.088 0.2356,0.125 0.4063,0.125 0.2453,0 0.4707,-0.05608 0.7187,-0.21875 0.2481,-0.16267 0.494,-0.40025 0.75,-0.65625 0.1106,-0.11058 0.1847,-0.20739 0.2813,-0.3125 -0.0563,0.10904 -0.0967,0.23144 -0.125,0.3125 -0.04,0.11467 -0.0625,0.20583 -0.0625,0.3125 0,0.15467 0.0602,0.279 0.1562,0.375 0.0961,0.096 0.2303,0.15625 0.4063,0.15625 0.1867,0 0.3724,-0.06483 0.5937,-0.1875 0.1604,-0.08884 0.3873,-0.28199 0.5938,-0.46875 0.0157,0.08691 0.0213,0.18243 0.0625,0.25 0.0667,0.10933 0.1719,0.18333 0.2813,0.25 0.1093,0.06667 0.2077,0.12692 0.3437,0.15625 0.136,0.02933 0.2988,0.03125 0.4375,0.03125 0.2367,0 0.4208,-0.07965 0.625,-0.125 V 5.9375 c 0.08,-0.016 0.1467,-0.04308 0.2188,-0.09375 0.0719,-0.05067 0.16,-0.11283 0.2187,-0.1875 0.0587,-0.07467 0.0903,-0.154 0.125,-0.25 0.0347,-0.096 0.0625,-0.21117 0.0625,-0.3125 0,-0.16 -0.0271,-0.28892 -0.0938,-0.40625 C 58.0896,4.57017 58.0175,4.45042 57.9375,4.34375 57.8575,4.23708 57.7854,4.11467 57.7188,4 57.6521,3.88533 57.5938,3.77433 57.5938,3.625 c -1e-4,-0.13867 0.0449,-0.25042 0.125,-0.34375 0.08,-0.09333 0.1944,-0.15625 0.3437,-0.15625 0.1227,0 0.2199,0.045 0.2813,0.125 0.0613,0.08 0.0937,0.17458 0.0937,0.28125 0,0.10133 -0.0072,0.2085 -0.0313,0.3125 -0.0239,0.104 -0.0663,0.20583 -0.125,0.3125 0.0267,0.01067 0.0538,0.02325 0.0938,0.03125 0.04,0.008 0.077,0 0.125,0 0.1547,0 0.3049,-0.05758 0.4062,-0.15625 0.1014,-0.09867 0.125,-0.22033 0.125,-0.375 0,-0.20267 -0.0766,-0.35942 -0.25,-0.46875 -0.1733,-0.10933 -0.369,-0.15625 -0.625,-0.15625 -0.1439,0 -0.2988,0.02517 -0.4374,0.0625 -0.1387,0.03733 -0.263,0.07892 -0.375,0.15625 -0.112,0.07733 -0.212,0.16925 -0.2813,0.28125 -0.0693,0.112 -0.0937,0.25692 -0.0937,0.40625 -1e-4,0.05473 0.0179,0.10418 0.0312,0.15625 -0.0712,0.08315 -0.1617,0.18101 -0.25,0.28125 -0.0612,0.06943 -0.1212,0.14625 -0.1875,0.21875 -0.0482,-0.0183 -0.0932,-0.0625 -0.1563,-0.0625 -0.096,0 -0.1779,0.01717 -0.25,0.0625 C 56.0843,4.63908 56.048,4.68067 56,4.75 55.952,4.81933 55.899,4.91467 55.875,5 c -0.024,0.08533 -0.0312,0.16467 -0.0312,0.25 -1e-4,0.02337 -0.0015,0.04021 0,0.0625 -0.1687,0.15453 -0.342,0.32636 -0.4688,0.40625 -0.1947,0.12267 -0.3621,0.1875 -0.4688,0.1875 -0.048,0 -0.0697,-0.0225 -0.0937,-0.0625 C 54.7885,5.80375 54.75,5.7515 54.75,5.6875 c 0,-0.08 0.0378,-0.18717 0.0938,-0.3125 0.0559,-0.12533 0.1353,-0.30267 0.25,-0.5 0.1146,-0.19733 0.2874,-0.4075 0.4687,-0.6875 0.1813,-0.28 0.3743,-0.63658 0.625,-1.03125 L 55.375,3.1875 c -0.24,0.37333 -0.4338,0.71542 -0.5938,0.96875 -0.16,0.25333 -0.3102,0.45433 -0.4062,0.625 -0.104,0.11733 -0.2112,0.21117 -0.3125,0.3125 -0.24,0.24533 -0.4688,0.44442 -0.6875,0.59375 -0.2187,0.14933 -0.4032,0.21875 -0.5312,0.21875 -0.1334,0 -0.1876,-0.05417 -0.1876,-0.1875 1e-4,-0.096 0.0378,-0.20775 0.0938,-0.34375 0.056,-0.136 0.1281,-0.28017 0.2188,-0.4375 0.0906,-0.15733 0.1719,-0.332 0.2812,-0.5 0.1093,-0.168 0.2371,-0.34267 0.3438,-0.5 C 53.7004,3.78017 53.7843,3.636 53.875,3.5 53.9657,3.364 54.0457,3.25225 54.0938,3.15625 l -0.8438,0.0625 -0.1875,0.3125 c -0.0693,-0.17067 -0.1746,-0.295 -0.2813,-0.375 -0.1066,-0.08 -0.2508,-0.125 -0.4374,-0.125 -0.2454,0 -0.512,0.05683 -0.7813,0.1875 -0.2693,0.13067 -0.5001,0.32058 -0.7187,0.53125 -0.1573,0.15153 -0.2564,0.32226 -0.3751,0.5 -0.0976,0.04298 -0.1893,0.09375 -0.3125,0.09375 -0.1119,0 -0.2111,-0.0305 -0.3124,-0.0625 -0.1014,-0.032 -0.2059,-0.09683 -0.3126,-0.1875 0.0107,-0.048 0.026,-0.08958 0.0313,-0.15625 0.0053,-0.06667 0,-0.14942 0,-0.21875 0.0107,-0.23467 -0.0217,-0.38533 -0.0938,-0.5 -0.072,-0.11467 -0.1791,-0.1875 -0.3125,-0.1875 -0.1173,0 -0.1859,0.05033 -0.25,0.125 -0.0639,0.07467 -0.0937,0.15933 -0.0937,0.25 0,0.112 0.0198,0.2165 0.0625,0.3125 -0.0053,0.21333 -0.0862,0.42617 -0.1875,0.6875 -0.1013,0.26133 -0.2123,0.52067 -0.375,0.75 -0.1627,0.22933 -0.3625,0.40783 -0.5625,0.5625 -0.2,0.15467 -0.3911,0.25 -0.5938,0.25 -0.1333,0 -0.2279,-0.03242 -0.2812,-0.09375 -0.0533,-0.06133 -0.0625,-0.16392 -0.0625,-0.28125 0,-0.16 0.0469,-0.33583 0.1562,-0.5625 0.1094,-0.22667 0.2257,-0.45283 0.3751,-0.6875 0.1493,-0.23467 0.3114,-0.47417 0.4687,-0.6875 0.1573,-0.21333 0.2843,-0.39258 0.375,-0.53125 l -0.875,0.03125 c -0.176,0.26667 -0.3327,0.51608 -0.4687,0.71875 -0.0969,0.14434 -0.1762,0.25095 -0.25,0.375 -0.012,0.00587 -0.0191,0.02583 -0.0313,0.03125 -0.072,0.032 -0.1441,0.0625 -0.2187,0.0625 C 46.1144,4.34375 46,4.22933 46,4 c 0,-0.18133 0.0397,-0.34267 0.125,-0.5 0.0853,-0.15733 0.1799,-0.32475 0.2812,-0.46875 -0.1493,0.00533 -0.2763,0.02592 -0.375,0.03125 -0.0986,0.00533 -0.1806,0.01258 -0.25,0.03125 -0.0693,0.01867 -0.1368,0.02783 -0.1874,0.0625 -0.0507,0.03467 -0.0976,0.09758 -0.1563,0.15625 -0.0373,0.03733 -0.0763,0.07433 -0.1563,0.125 -0.0799,0.05067 -0.1951,0.12275 -0.3125,0.21875 -0.1173,0.096 -0.2489,0.223 -0.4062,0.375 -0.1573,0.152 -0.3286,0.34308 -0.5313,0.59375 H 44 l 1.0625,-1.5 -0.9063,0.03125 C 43.8789,3.63625 43.5925,4.0985 43.3125,4.5625 43.257,4.65441 43.2114,4.75163 43.1562,4.84375 43.0837,4.91694 43.0121,4.99171 42.9375,5.0625 42.6655,5.3185 42.3943,5.49167 42.125,5.625 41.8557,5.75833 41.599,5.84375 41.375,5.84375 41.1457,5.84375 40.9718,5.769 40.8438,5.625 40.7157,5.481 40.6562,5.29183 40.6562,5.0625 c 1e-4,-0.08533 0.0046,-0.17458 0.0313,-0.28125 0.096,-0.02133 0.2257,-0.06175 0.375,-0.09375 0.1493,-0.032 0.2981,-0.077 0.4687,-0.125 0.1707,-0.048 0.358,-0.09225 0.5313,-0.15625 0.1733,-0.064 0.3301,-0.13342 0.4687,-0.21875 C 42.6699,4.10217 42.7557,3.98167 42.8438,3.875 42.9317,3.76833 43,3.65925 43,3.53125 c 0,-0.16 -0.0595,-0.287 -0.1875,-0.375 -0.128,-0.088 -0.3332,-0.125 -0.5625,-0.125 z M 42.125,3.125 c 0.064,0 0.1162,0.0305 0.1562,0.0625 0.0401,0.032 0.0626,0.08158 0.0626,0.15625 0,0.128 -0.0344,0.26492 -0.125,0.40625 -0.0907,0.14133 -0.223,0.28092 -0.375,0.40625 -0.152,0.12533 -0.334,0.21383 -0.5313,0.3125 -0.1973,0.09867 -0.4063,0.17608 -0.625,0.21875 0.032,-0.13333 0.1147,-0.29008 0.2187,-0.46875 0.104,-0.17867 0.2078,-0.33733 0.3438,-0.5 C 41.386,3.55608 41.5328,3.4245 41.6875,3.3125 41.8422,3.2005 41.9917,3.125 42.125,3.125 Z m 10.2812,0 c 0.1547,0 0.2592,0.045 0.3126,0.125 0.0533,0.08 0.0937,0.19975 0.0937,0.34375 0,0.10133 -0.0172,0.22833 -0.0625,0.375 -0.0453,0.14667 -0.1102,0.30342 -0.1875,0.46875 -0.0773,0.16533 -0.1772,0.30608 -0.2813,0.46875 -0.1039,0.16267 -0.1978,0.33542 -0.3124,0.46875 -0.1147,0.13333 -0.2524,0.2245 -0.375,0.3125 -0.1227,0.088 -0.2318,0.15092 -0.3438,0.15625 -0.1653,0 -0.2618,-0.07283 -0.3125,-0.1875 C 50.8868,5.54158 50.8438,5.40467 50.8438,5.25 c 0,-0.10667 0.0198,-0.22833 0.0624,-0.375 0.0427,-0.14667 0.1129,-0.30875 0.1876,-0.46875 0.0746,-0.16 0.1772,-0.31675 0.2812,-0.46875 0.104,-0.152 0.1978,-0.28358 0.3125,-0.40625 0.1147,-0.12267 0.2497,-0.20658 0.375,-0.28125 0.1253,-0.07467 0.2211,-0.125 0.3437,-0.125 z m 4.625,1.0625 c 0.0134,0.0313 0.0128,0.06347 0.0313,0.09375 0.0667,0.10933 0.1387,0.20583 0.2187,0.3125 0.08,0.10667 0.1521,0.22908 0.2188,0.34375 0.0667,0.11467 0.0938,0.23633 0.0938,0.375 -1e-4,0.10133 -0.0145,0.19592 -0.0626,0.28125 -0.0479,0.08533 -0.1101,0.15742 -0.1874,0.21875 -0.0774,0.06133 -0.1514,0.12425 -0.25,0.15625 C 56.9951,6.00075 56.8773,6 56.7812,6 56.6266,6 56.4897,5.971 56.375,5.875 56.2603,5.779 56.2188,5.64933 56.2188,5.5 c 0,-0.05867 0.0125,-0.1315 0.0312,-0.1875 0.0187,-0.056 0.0358,-0.10825 0.0625,-0.15625 0.048,0.02667 0.1182,0.0625 0.1875,0.0625 0.0853,0 0.1547,-0.03508 0.2188,-0.09375 0.064,-0.05867 0.0937,-0.138 0.0937,-0.25 0,-0.09067 -0.0271,-0.18067 -0.0937,-0.25 -0.0123,-0.01272 -0.0484,0.01039 -0.0626,0 0.0295,-0.03253 0.0647,-0.06102 0.0938,-0.09375 0.1067,-0.12 0.1879,-0.23442 0.2812,-0.34375 z"
       fill="#000000"
       fill-rule="nonzero"
       opacity="1"
       stroke="none"
       id="path4233" /></g></g></svg>
