<?xml version="1.0" encoding="UTF-8" standalone="no"?>
<!-- Created with Vectornator (http://vectornator.io/) -->

<svg
   height="3.0mm"
   stroke-miterlimit="10"
   style="fill-rule:nonzero;clip-rule:evenodd;stroke-linecap:round;stroke-linejoin:round;"
   version="1.1"
   viewBox="0 0 9.0 3.0"
   width="9.0mm"
   xml:space="preserve"
   id="svg7572"
   sodipodi:docname="ISM330DHCX Stemma interrupts.svg"
   inkscape:version="1.1.2 (0a00cf5, 2022-02-04)"
   xmlns:inkscape="http://www.inkscape.org/namespaces/inkscape"
   xmlns:sodipodi="http://sodipodi.sourceforge.net/DTD/sodipodi-0.dtd"
   xmlns="http://www.w3.org/2000/svg"
   xmlns:svg="http://www.w3.org/2000/svg"
   xmlns:vectornator="http://vectornator.io"><sodipodi:namedview
   id="namedview7574"
   pagecolor="#505050"
   bordercolor="#eeeeee"
   borderopacity="1"
   inkscape:pageshadow="0"
   inkscape:pageopacity="0"
   inkscape:pagecheckerboard="0"
   showgrid="false"
   inkscape:zoom="12.345679"
   inkscape:cx="18.711"
   inkscape:cy="6.0345"
   inkscape:window-width="3375"
   inkscape:window-height="1416"
   inkscape:window-x="65"
   inkscape:window-y="24"
   inkscape:window-maximized="1"
   inkscape:current-layer="g7643"
   inkscape:document-units="mm" />
<defs
   id="defs7533">
<path
   d="M0.0146117 0L25.5004 0C25.5085 0 25.515 0.00312191 25.515 0.00697298L25.515 8.49803C25.515 8.50188 25.5085 8.505 25.5004 8.505L0.0146117 8.505C0.00654189 8.505 0 8.50188 0 8.49803L0 0.00697298C0 0.00312191 0.00654189 0 0.0146117 0Z"
   id="Fill" />
<clipPath
   id="TextBounds">
<rect
   height="5.83687"
   width="6.28768"
   x="0.400238"
   y="2.94928"
   id="rect7524" />
</clipPath>
<clipPath
   id="TextBounds_2">
<rect
   height="6.33975"
   width="6.28768"
   x="7.54056"
   y="2.97274"
   id="rect7527" />
</clipPath>
<clipPath
   id="TextBounds_3">
<rect
   height="7.79762"
   width="27.3011"
   x="-1.70149"
   y="-1.03727"
   id="rect7530" />
</clipPath>
<clipPath
   id="TextBounds-6"><rect
     height="5.8368702"
     width="6.2876801"
     x="0.40023801"
     y="2.94928"
     id="rect7524-1" /></clipPath><clipPath
   id="TextBounds_2-2"><rect
     height="6.3397498"
     width="6.2876801"
     x="7.5405598"
     y="2.9727399"
     id="rect7527-9" /></clipPath><clipPath
   id="TextBounds_3-3"><rect
     height="7.7976198"
     width="27.3011"
     x="-1.70149"
     y="-1.0372699"
     id="rect7530-1" /></clipPath><clipPath
   id="clipPath7683"><rect
     height="7.7976198"
     width="27.3011"
     x="-1.70149"
     y="-1.0372699"
     id="rect7681" /></clipPath><clipPath
   id="clipPath7687"><rect
     height="7.7976198"
     width="27.3011"
     x="-1.70149"
     y="-1.0372699"
     id="rect7685" /></clipPath><clipPath
   id="clipPath7691"><rect
     height="7.7976198"
     width="27.3011"
     x="-1.70149"
     y="-1.0372699"
     id="rect7689" /></clipPath><clipPath
   id="clipPath7695"><rect
     height="7.7976198"
     width="27.3011"
     x="-1.70149"
     y="-1.0372699"
     id="rect7693" /></clipPath><clipPath
   id="clipPath7699"><rect
     height="7.7976198"
     width="27.3011"
     x="-1.70149"
     y="-1.0372699"
     id="rect7697" /></clipPath><clipPath
   id="clipPath7703"><rect
     height="7.7976198"
     width="27.3011"
     x="-1.70149"
     y="-1.0372699"
     id="rect7701" /></clipPath><clipPath
   id="clipPath7707"><rect
     height="7.7976198"
     width="27.3011"
     x="-1.70149"
     y="-1.0372699"
     id="rect7705" /></clipPath><clipPath
   id="clipPath7711"><rect
     height="7.7976198"
     width="27.3011"
     x="-1.70149"
     y="-1.0372699"
     id="rect7709" /></clipPath></defs>


<g
   inkscape:label="[fixed] BG"
   inkscape:groupmode="layer"
   sodipodi:insensitive="true"
   id="g7637"><rect
     x="0"
     y="0"
     width="9.0"
     height="3.0"
     style="fill:#FFFFFF;fill-opacity:1;stroke:none"
     id="rect7635" /></g><g
   inkscape:label="F.Cu"
   inkscape:groupmode="layer"
   id="g7639" /><g
   inkscape:label="F.Mask"
   inkscape:groupmode="layer"
   id="g7641" /><g
   inkscape:label="F.SilkS"
   inkscape:groupmode="layer"
   id="g7643"><g
     id="Capa-1"
     vectornator:layerName="Capa 1"
     style="clip-rule:evenodd;fill-rule:nonzero;stroke-linecap:round;stroke-linejoin:round"
     transform="matrix(0.37775635,0,0,0.36400857,-0.07654061,-0.03009474)"><path
       clip-path="url(#TextBounds-6)"
       d="M 4.22673,8.30078 H 3.41563 V 5.24401 C 3.11929,5.52111 2.77002,5.72605 2.36784,5.85883 V 5.12278 C 2.57952,5.05351 2.80947,4.92217 3.05771,4.72878 3.30594,4.53539 3.47625,4.30976 3.56861,4.0519 h 0.65812 z"
       fill="#000000"
       opacity="1"
       stroke="none"
       id="path7547" /><path
       clip-path="url(#TextBounds_2-2)"
       d="M 12.0309,7.57088 V 8.32424 H 9.18777 C 9.21856,8.03944 9.31092,7.76956 9.46487,7.51459 9.61881,7.25962 9.92285,6.92142 10.377,6.5 10.7426,6.1594 10.9668,5.92848 11.0495,5.80725 11.1611,5.63983 11.217,5.47434 11.217,5.31078 11.217,5.12989 11.1684,4.99086 11.0712,4.89368 10.974,4.7965 10.8398,4.74792 10.6685,4.74792 c -0.1693,0 -0.304,0.05099 -0.4041,0.15298 -0.1,0.10199 -0.1578,0.27133 -0.1732,0.50802 L 9.28302,5.32809 C 9.33113,4.88166 9.48219,4.56126 9.7362,4.3669 c 0.254,-0.19435 0.5715,-0.29153 0.9525,-0.29153 0.4176,0 0.7457,0.11257 0.9843,0.33772 0.2386,0.22514 0.3579,0.50513 0.3579,0.83996 0,0.1905 -0.0341,0.37187 -0.1024,0.54409 -0.0683,0.17223 -0.1766,0.35263 -0.3248,0.54122 -0.0981,0.12508 -0.2751,0.305 -0.5311,0.53976 -0.2559,0.23477 -0.418,0.39064 -0.4863,0.46761 -0.0684,0.07697 -0.1237,0.15202 -0.166,0.22515 z"
       fill="#000000"
       opacity="1"
       stroke="none"
       id="path7549" /><g
       fill="#000000"
       opacity="1"
       stroke="none"
       id="g7569"><path
         clip-path="url(#TextBounds_3-3)"
         d="M 0.202619,4.31423 V 0.0826759 H 1.05701 V 4.31423 Z"
         id="path7551" /><path
         clip-path="url(#TextBounds_3-3)"
         d="M 4.65354,4.31423 H 3.84245 V 2.74977 C 3.84245,2.41879 3.82513,2.20471 3.79049,2.10753 3.75585,2.01035 3.69957,1.93482 3.62163,1.88094 3.5437,1.82706 3.44989,1.80012 3.3402,1.80012 3.19973,1.80012 3.07369,1.83861 2.96208,1.91558 2.85047,1.99255 2.77398,2.09454 2.7326,2.22154 2.69123,2.34855 2.67054,2.58331 2.67054,2.92584 V 4.31423 H 1.85945 V 1.24881 H 2.61281 V 1.69909 C 2.88029,1.35272 3.21705,1.17953 3.62308,1.17953 c 0.17896,0 0.34252,0.03223 0.49069,0.0967 0.14818,0.06446 0.26027,0.14673 0.33628,0.24679 0.07601,0.10006 0.12893,0.2136 0.15875,0.3406 0.02983,0.12701 0.04474,0.30885 0.04474,0.54554 z"
         id="path7553" /><path
         clip-path="url(#TextBounds_3-3)"
         d="m 6.88189,1.24881 v 0.64656 h -0.5542 v 1.23541 c 0,0.25016 0.00529,0.39593 0.01588,0.4373 0.01058,0.04137 0.03463,0.07553 0.07216,0.10247 0.03752,0.02694 0.08322,0.04041 0.13711,0.04041 0.07504,0 0.18377,-0.02598 0.32617,-0.07794 L 6.94828,4.26227 C 6.7597,4.34309 6.5461,4.3835 6.30749,4.3835 6.16124,4.3835 6.02942,4.35897 5.91204,4.3099 5.79466,4.26083 5.70854,4.19733 5.6537,4.11939 5.59886,4.04146 5.56085,3.9361 5.53969,3.80333 5.52237,3.70903 5.51371,3.51853 5.51371,3.23181 V 1.89537 H 5.14136 V 1.24881 H 5.51371 V 0.639763 L 6.32769,0.166383 V 1.24881 Z"
         id="path7555" /><path
         clip-path="url(#TextBounds_3-3)"
         d="M 9.21993,3.3386 10.0281,3.47427 C 9.92422,3.77061 9.76018,3.99624 9.53599,4.15114 9.31181,4.30605 9.03134,4.3835 8.69459,4.3835 8.16156,4.3835 7.76707,4.20935 7.51114,3.86105 7.30909,3.58203 7.20806,3.22988 7.20806,2.80461 c 0,-0.50802 0.13278,-0.90587 0.39833,-1.19355 0.26556,-0.28769 0.60135,-0.43153 1.00738,-0.43153 0.45606,0 0.81591,0.15058 1.07954,0.45173 0.26363,0.30116 0.38969,0.76251 0.37809,1.38406 H 8.03936 c 0.00578,0.24054 0.0712,0.42768 0.19628,0.56142 0.12508,0.13374 0.28095,0.20061 0.46761,0.20061 0.127,0 0.2338,-0.03464 0.3204,-0.10392 C 9.11024,3.60416 9.17567,3.49255 9.21993,3.3386 Z M 9.26611,2.51885 C 9.26034,2.28408 9.19972,2.1056 9.08426,1.98341 8.9688,1.86122 8.82833,1.80012 8.66284,1.80012 8.4858,1.80012 8.33955,1.86459 8.2241,1.99351 8.10864,2.12244 8.05187,2.29755 8.0538,2.51885 Z"
         id="path7557" /><path
         clip-path="url(#TextBounds_3-3)"
         d="M 11.5089,4.31423 H 10.6978 V 1.24881 h 0.7534 v 0.43585 c 0.1289,-0.2059 0.2448,-0.34156 0.3478,-0.40699 0.1029,-0.06543 0.2198,-0.09814 0.3507,-0.09814 0.1847,0 0.3627,0.051 0.534,0.15298 L 12.4326,2.0397 C 12.2959,1.95118 12.1689,1.90692 12.0515,1.90692 c -0.1135,0 -0.2097,0.03127 -0.2886,0.09381 -0.0789,0.06254 -0.141,0.17559 -0.1862,0.33916 -0.0452,0.16357 -0.0678,0.50609 -0.0678,1.02758 z"
         id="path7559" /><path
         clip-path="url(#TextBounds_3-3)"
         d="M 13.8094,4.31423 H 12.9983 V 1.24881 h 0.7534 v 0.43585 c 0.1289,-0.2059 0.2448,-0.34156 0.3478,-0.40699 0.1029,-0.06543 0.2198,-0.09814 0.3507,-0.09814 0.1847,0 0.3627,0.051 0.534,0.15298 L 14.7331,2.0397 c -0.1367,-0.08852 -0.2637,-0.13278 -0.381,-0.13278 -0.1136,0 -0.2098,0.03127 -0.2887,0.09381 -0.0789,0.06254 -0.1409,0.17559 -0.1862,0.33916 -0.0452,0.16357 -0.0678,0.50609 -0.0678,1.02758 z"
         id="path7561" /><path
         clip-path="url(#TextBounds_3-3)"
         d="M 17.3511,4.31423 V 3.85528 C 17.2395,4.01885 17.0928,4.14778 16.9109,4.24207 16.7291,4.33636 16.5371,4.3835 16.3351,4.3835 16.1292,4.3835 15.9444,4.33828 15.7809,4.24784 15.6173,4.1574 15.4989,4.03039 15.4258,3.86683 15.3527,3.70326 15.3161,3.47716 15.3161,3.18851 v -1.9397 h 0.8111 V 2.6574 c 0,0.43104 0.0149,0.69516 0.0448,0.79233 0.0298,0.09718 0.0842,0.17415 0.1631,0.23092 0.0789,0.05677 0.1789,0.08515 0.3001,0.08515 0.1386,0 0.2627,-0.038 0.3724,-0.11401 0.1097,-0.07601 0.1847,-0.17031 0.2251,-0.28288 0.0405,-0.11257 0.0607,-0.38823 0.0607,-0.82697 V 1.24881 h 0.8111 v 3.06542 z"
         id="path7563" /><path
         clip-path="url(#TextBounds_3-3)"
         d="m 18.9213,1.24881 h 0.7563 v 0.45028 c 0.0981,-0.15394 0.2309,-0.27902 0.3983,-0.37524 0.1674,-0.09621 0.3531,-0.14432 0.5571,-0.14432 0.356,0 0.6581,0.13951 0.9063,0.41854 0.2483,0.27902 0.3724,0.66773 0.3724,1.16613 0,0.51186 -0.1251,0.90972 -0.3752,1.19355 -0.2502,0.28384 -0.5533,0.42575 -0.9093,0.42575 -0.1693,0 -0.3228,-0.03367 -0.4604,-0.10102 C 20.0292,4.21513 19.8844,4.09967 19.7324,3.9361 v 1.54426 h -0.8111 z m 0.8025,1.48075 c 0,0.34445 0.0683,0.59894 0.2049,0.76347 0.1366,0.16453 0.3031,0.24679 0.4994,0.24679 0.1885,0 0.3454,-0.07553 0.4705,-0.22658 0.125,-0.15106 0.1876,-0.39882 0.1876,-0.74327 0,-0.32136 -0.0645,-0.55997 -0.1934,-0.71584 -0.129,-0.15587 -0.2887,-0.2338 -0.4792,-0.2338 -0.1982,0 -0.3627,0.07649 -0.4936,0.22947 -0.1308,0.15298 -0.1962,0.37957 -0.1962,0.67976 z"
         id="path7565" /><path
         clip-path="url(#TextBounds_3-3)"
         d="m 23.9611,1.24881 v 0.64656 h -0.5542 v 1.23541 c 0,0.25016 0.0053,0.39593 0.0159,0.4373 0.0105,0.04137 0.0346,0.07553 0.0721,0.10247 0.0375,0.02694 0.0832,0.04041 0.1371,0.04041 0.0751,0 0.1838,-0.02598 0.3262,-0.07794 l 0.0693,0.62925 C 23.8389,4.34309 23.6253,4.3835 23.3867,4.3835 23.2404,4.3835 23.1086,4.35897 22.9912,4.3099 22.8739,4.26083 22.7877,4.19733 22.7329,4.11939 22.6781,4.04146 22.64,3.9361 22.6189,3.80333 22.6016,3.70903 22.5929,3.51853 22.5929,3.23181 V 1.89537 H 22.2206 V 1.24881 h 0.3723 V 0.639763 l 0.814,-0.47338 V 1.24881 Z"
         id="path7567" /></g></g></g></svg>
