<?xml version="1.0" encoding="UTF-8" standalone="no"?>
<!-- Created with Vectornator (http://vectornator.io/) -->

<svg
   height="1.5499999523162842mm"
   stroke-miterlimit="10"
   style="fill-rule:nonzero;clip-rule:evenodd;stroke-linecap:round;stroke-linejoin:round;"
   version="1.1"
   viewBox="0 0 13.199999809265137 1.5499999523162842"
   width="13.199999809265137mm"
   xml:space="preserve"
   id="svg8340"
   sodipodi:docname="ISM330DHCX.svg"
   inkscape:version="1.1.2 (0a00cf5, 2022-02-04)"
   xmlns:inkscape="http://www.inkscape.org/namespaces/inkscape"
   xmlns:sodipodi="http://sodipodi.sourceforge.net/DTD/sodipodi-0.dtd"
   xmlns="http://www.w3.org/2000/svg"
   xmlns:svg="http://www.w3.org/2000/svg"
   xmlns:vectornator="http://vectornator.io"><sodipodi:namedview
   id="namedview8342"
   pagecolor="#505050"
   bordercolor="#eeeeee"
   borderopacity="1"
   inkscape:pageshadow="0"
   inkscape:pageopacity="0"
   inkscape:pagecheckerboard="0"
   showgrid="false"
   inkscape:zoom="33.670034"
   inkscape:cx="18.711"
   inkscape:cy="2.18295"
   inkscape:window-width="3375"
   inkscape:window-height="1416"
   inkscape:window-x="65"
   inkscape:window-y="24"
   inkscape:window-maximized="1"
   inkscape:current-layer="svg8340"
   inkscape:document-units="mm" />
<defs
   id="defs8309">
<clipPath
   id="TextBounds">
<rect
   height="6.25027"
   width="43.289"
   x="-3.16591"
   y="-1.09227"
   id="rect8306" />
</clipPath>
<clipPath
   id="ArtboardFrame-9"><rect
     height="4.3942499"
     width="37.422001"
     x="0"
     y="0"
     id="rect8311-4" /></clipPath><clipPath
   id="TextBounds-7"><rect
     height="6.2502699"
     width="43.289001"
     x="-3.16591"
     y="-1.09227"
     id="rect8306-8" /></clipPath><clipPath
   id="clipPath8431"><rect
     height="6.2502699"
     width="43.289001"
     x="-3.16591"
     y="-1.09227"
     id="rect8429" /></clipPath><clipPath
   id="clipPath8435"><rect
     height="6.2502699"
     width="43.289001"
     x="-3.16591"
     y="-1.09227"
     id="rect8433" /></clipPath><clipPath
   id="clipPath8439"><rect
     height="6.2502699"
     width="43.289001"
     x="-3.16591"
     y="-1.09227"
     id="rect8437" /></clipPath><clipPath
   id="clipPath8443"><rect
     height="6.2502699"
     width="43.289001"
     x="-3.16591"
     y="-1.09227"
     id="rect8441" /></clipPath><clipPath
   id="clipPath8447"><rect
     height="6.2502699"
     width="43.289001"
     x="-3.16591"
     y="-1.09227"
     id="rect8445" /></clipPath><clipPath
   id="clipPath8451"><rect
     height="6.2502699"
     width="43.289001"
     x="-3.16591"
     y="-1.09227"
     id="rect8449" /></clipPath><clipPath
   id="clipPath8455"><rect
     height="6.2502699"
     width="43.289001"
     x="-3.16591"
     y="-1.09227"
     id="rect8453" /></clipPath><clipPath
   id="clipPath8459"><rect
     height="6.2502699"
     width="43.289001"
     x="-3.16591"
     y="-1.09227"
     id="rect8457" /></clipPath><clipPath
   id="clipPath8463"><rect
     height="6.2502699"
     width="43.289001"
     x="-3.16591"
     y="-1.09227"
     id="rect8461" /></clipPath></defs>
<clipPath
   id="ArtboardFrame">
<rect
   height="4.39425"
   width="37.422"
   x="0"
   y="0"
   id="rect8311" />
</clipPath>


<g
   inkscape:label="[fixed] BG"
   inkscape:groupmode="layer"
   sodipodi:insensitive="true"
   id="g8387"><rect
     x="0"
     y="0"
     width="13.199999809265137"
     height="1.5499999523162842"
     style="fill:#FFFFFF;fill-opacity:1;stroke:none"
     id="rect8385" /></g><g
   inkscape:label="F.Cu"
   inkscape:groupmode="layer"
   id="g8389" /><g
   inkscape:label="F.Mask"
   inkscape:groupmode="layer"
   id="g8391" /><g
   inkscape:label="F.SilkS"
   inkscape:groupmode="layer"
   id="g8393"
   style="display:inline"><g
     clip-path="url(#ArtboardFrame-9)"
     id="Capa-2"
     vectornator:layerName="Capa 2"
     transform="matrix(0.35426932,0,0,0.35273369,-0.0175048,0)"
     style="clip-rule:evenodd;fill-rule:nonzero;stroke-linecap:round;stroke-linejoin:round"><g
       fill="#000000"
       opacity="1"
       stroke="none"
       id="g8337"><path
         clip-path="url(#TextBounds-7)"
         d="M 0.049411,4.33937 V 0.0444442 H 0.916598 V 4.33937 Z"
         id="path8317" /><path
         clip-path="url(#TextBounds-7)"
         d="M 1.52304,2.94191 2.36679,2.85987 c 0.05079,0.28321 0.15381,0.49121 0.30909,0.62403 0.15527,0.13281 0.36474,0.19922 0.62841,0.19922 0.2793,0 0.48975,-0.05909 0.63135,-0.17725 0.1416,-0.11816 0.2124,-0.25635 0.2124,-0.41455 0,-0.10156 -0.02978,-0.18799 -0.08935,-0.25928 C 3.99912,2.76075 3.89511,2.69874 3.74668,2.64601 3.64511,2.61085 3.41367,2.54835 3.05234,2.45851 2.5875,2.34327 2.26133,2.20167 2.07383,2.0337 1.81015,1.79737 1.67832,1.50929 1.67832,1.16944 c 0,-0.218746 0.06201,-0.423336 0.18603,-0.613765 0.12403,-0.19043 0.30274,-0.33545 0.53614,-0.435059 0.23339,-0.0996093 0.51513,-0.149414 0.84521,-0.149414 0.53906,0 0.94482,0.118164 1.21729,0.354492 0.27246,0.236328 0.41552,0.551758 0.42919,0.946286 L 4.025,1.31007 C 3.98789,1.08937 3.9083,0.930675 3.78623,0.833995 3.66416,0.737315 3.48105,0.688975 3.23691,0.688975 c -0.25195,0 -0.44922,0.051758 -0.5918,0.155274 -0.09179,0.066406 -0.13769,0.155273 -0.13769,0.266601 0,0.10156 0.04297,0.18848 0.12891,0.26074 0.10937,0.0918 0.375,0.1875 0.79687,0.28711 0.42188,0.09961 0.73389,0.20264 0.93604,0.30908 0.20214,0.10645 0.36035,0.25196 0.4746,0.43653 0.11426,0.18457 0.17139,0.4126 0.17139,0.68408 0,0.24609 -0.06836,0.47656 -0.20508,0.69141 C 4.67343,3.99464 4.48008,4.15431 4.23008,4.2588 3.98008,4.36329 3.66855,4.41554 3.2955,4.41554 2.75254,4.41554 2.33554,4.29005 2.04453,4.03907 1.75351,3.7881 1.57968,3.42237 1.52304,2.94191 Z"
         id="path8319" /><path
         clip-path="url(#TextBounds-7)"
         d="M 5.733,4.33937 V 0.0444442 H 7.03086 L 7.81015,2.97413 8.58066,0.0444442 H 9.88144 V 4.33937 H 9.07578 V 0.958507 L 8.22324,4.33937 H 7.38828 L 6.53867,0.958507 V 4.33937 Z"
         id="path8321" /><path
         clip-path="url(#TextBounds-7)"
         d="m 10.5318,3.19972 0.7969,-0.09668 c 0.0254,0.20312 0.0938,0.3584 0.2051,0.46582 0.1113,0.10742 0.2461,0.16113 0.4043,0.16113 0.1699,0 0.313,-0.06445 0.4292,-0.19336 0.1162,-0.1289 0.1743,-0.30273 0.1743,-0.52148 0,-0.20703 -0.0557,-0.3711 -0.167,-0.49219 -0.1113,-0.12109 -0.2471,-0.18164 -0.4072,-0.18164 -0.1055,0 -0.2315,0.02051 -0.3779,0.06152 l 0.0908,-0.6709 c 0.2226,0.00586 0.3925,-0.04248 0.5097,-0.14502 0.1172,-0.10253 0.1758,-0.23876 0.1758,-0.40869 0,-0.14453 -0.043,-0.259762 -0.1289,-0.3457 -0.0859,-0.085937 -0.2002,-0.128906 -0.3428,-0.128906 -0.1406,0 -0.2607,0.048828 -0.3603,0.146484 -0.0996,0.097656 -0.1602,0.240232 -0.1817,0.427732 l -0.7587,-0.1289 c 0.0527,-0.259769 0.1323,-0.467289 0.2387,-0.622562 0.1065,-0.155274 0.2549,-0.277344 0.4453,-0.366211 0.1905,-0.0888674 0.4038,-0.1333009 0.6402,-0.1333009 0.4043,0 0.7285,0.1289059 0.9726,0.3867189 0.2012,0.210937 0.3018,0.449219 0.3018,0.714845 0,0.37695 -0.2061,0.67773 -0.6182,0.90234 0.2461,0.05274 0.4429,0.1709 0.5904,0.35449 0.1474,0.1836 0.2211,0.40528 0.2211,0.66504 0,0.37696 -0.1376,0.69825 -0.413,0.96387 -0.2754,0.26563 -0.6182,0.39844 -1.0284,0.39844 -0.3886,0 -0.7109,-0.11182 -0.9668,-0.33545 C 10.7213,3.85353 10.5728,3.56105 10.5318,3.19972 Z"
         id="path8323" /><path
         clip-path="url(#TextBounds-7)"
         d="m 13.8687,3.19972 0.7969,-0.09668 c 0.0254,0.20312 0.0938,0.3584 0.2051,0.46582 0.1113,0.10742 0.2461,0.16113 0.4043,0.16113 0.1699,0 0.313,-0.06445 0.4292,-0.19336 0.1162,-0.1289 0.1743,-0.30273 0.1743,-0.52148 0,-0.20703 -0.0557,-0.3711 -0.167,-0.49219 -0.1113,-0.12109 -0.247,-0.18164 -0.4072,-0.18164 -0.1055,0 -0.2315,0.02051 -0.3779,0.06152 l 0.0908,-0.6709 c 0.2226,0.00586 0.3926,-0.04248 0.5098,-0.14502 0.1171,-0.10253 0.1757,-0.23876 0.1757,-0.40869 0,-0.14453 -0.0429,-0.259762 -0.1289,-0.3457 -0.0859,-0.085937 -0.2002,-0.128906 -0.3427,-0.128906 -0.1407,0 -0.2608,0.048828 -0.3604,0.146484 -0.0996,0.097656 -0.1602,0.240232 -0.1816,0.427732 l -0.7588,-0.1289 c 0.0527,-0.259769 0.1323,-0.467289 0.2387,-0.622562 0.1065,-0.155274 0.2549,-0.277344 0.4454,-0.366211 0.1904,-0.0888674 0.4038,-0.1333009 0.6401,-0.1333009 0.4043,0 0.7285,0.1289059 0.9726,0.3867189 0.2012,0.210937 0.3018,0.449219 0.3018,0.714845 0,0.37695 -0.2061,0.67773 -0.6182,0.90234 0.2461,0.05274 0.4429,0.1709 0.5904,0.35449 0.1474,0.1836 0.2212,0.40528 0.2212,0.66504 0,0.37696 -0.1377,0.69825 -0.4131,0.96387 -0.2754,0.26563 -0.6182,0.39844 -1.0283,0.39844 -0.3887,0 -0.711,-0.11182 -0.9668,-0.33545 C 14.0582,3.85353 13.9098,3.56105 13.8687,3.19972 Z"
         id="path8325" /><path
         clip-path="url(#TextBounds-7)"
         d="m 18.6266,0.0268661 c 0.416,0 0.7412,0.1484379 0.9755,0.4453129 0.2793,0.351562 0.419,0.934571 0.419,1.749021 0,0.8125 -0.1406,1.39649 -0.4219,1.75196 -0.2324,0.29296 -0.5566,0.43945 -0.9726,0.43945 -0.418,0 -0.7549,-0.16065 -1.0108,-0.48194 C 17.36,3.60939 17.232,3.03663 17.232,2.21241 c 0,-0.80859 0.1407,-1.390622 0.4219,-1.746091 0.2324,-0.292969 0.5566,-0.4394529 0.9727,-0.4394529 z m 0,0.6826169 c -0.0996,0 -0.1885,0.031739 -0.2666,0.095215 -0.0782,0.063477 -0.1387,0.177246 -0.1817,0.341312 -0.0566,0.21289 -0.0849,0.57129 -0.0849,1.07519 0,0.50391 0.0253,0.8501 0.0761,1.03858 0.0508,0.18847 0.1148,0.31396 0.1919,0.37646 0.0772,0.0625 0.1656,0.09375 0.2652,0.09375 0.0996,0 0.1884,-0.03174 0.2666,-0.09521 0.0781,-0.06348 0.1386,-0.17725 0.1816,-0.34131 0.0566,-0.21094 0.085,-0.56836 0.085,-1.07227 0,-0.5039 -0.0254,-0.8501 -0.0762,-1.03857 C 19.0328,0.994151 18.9688,0.868175 18.8917,0.804698 18.8145,0.741222 18.7262,0.709483 18.6266,0.709483 Z"
         id="path8327" /><path
         clip-path="url(#TextBounds-7)"
         d="m 20.7506,0.0444442 h 1.5849 c 0.3575,0 0.6299,0.0273437 0.8174,0.0820308 0.252,0.074219 0.4678,0.206055 0.6475,0.395508 0.1797,0.189453 0.3164,0.421387 0.4101,0.695797 0.0938,0.27442 0.1407,0.6128 0.1407,1.01514 0,0.35352 -0.044,0.6582 -0.1319,0.91406 -0.1074,0.3125 -0.2607,0.56543 -0.4599,0.75879 C 23.609,4.05226 23.4059,4.16651 23.15,4.24855 22.9586,4.30909 22.7027,4.33937 22.3824,4.33937 H 20.7506 Z M 21.6178,0.771007 V 3.61573 h 0.6474 c 0.2422,0 0.417,-0.01367 0.5244,-0.04101 0.1407,-0.03516 0.2574,-0.09473 0.3501,-0.17871 0.0928,-0.08399 0.1685,-0.22217 0.2271,-0.41455 0.0586,-0.19239 0.0879,-0.45459 0.0879,-0.78663 0,-0.33203 -0.0293,-0.58691 -0.0879,-0.76464 C 23.3082,1.25245 23.2262,1.11378 23.1207,1.01417 23.0152,0.914561 22.8814,0.847179 22.7193,0.812022 22.5982,0.784679 22.3609,0.771007 22.0074,0.771007 Z"
         id="path8329" /><path
         clip-path="url(#TextBounds-7)"
         d="M 25.0895,4.33937 V 0.0444442 h 0.8671 V 1.73487 h 1.6993 V 0.0444442 H 28.523 V 4.33937 H 27.6559 V 2.46144 h -1.6993 v 1.87793 z"
         id="path8331" /><path
         clip-path="url(#TextBounds-7)"
         d="m 32.1676,2.76026 0.8408,0.26661 c -0.1289,0.46875 -0.3433,0.81689 -0.6431,1.04443 -0.2998,0.22754 -0.6801,0.34131 -1.1411,0.34131 -0.5703,0 -1.039,-0.19483 -1.4062,-0.58447 -0.3672,-0.38965 -0.5508,-0.92237 -0.5508,-1.59815 0,-0.71484 0.1846,-1.270018 0.5537,-1.665526 0.3691,-0.395508 0.8545,-0.593262 1.4561,-0.593262 0.5253,0 0.9521,0.155273 1.2802,0.46582 0.1953,0.183594 0.3418,0.447266 0.4395,0.791018 L 32.1383,1.43312 C 32.0875,1.21046 31.9815,1.03468 31.8204,0.905772 31.6593,0.776866 31.4635,0.712413 31.233,0.712413 c -0.3184,0 -0.5767,0.114258 -0.7749,0.342777 -0.1982,0.22851 -0.2974,0.59863 -0.2974,1.11035 0,0.54297 0.0977,0.92969 0.293,1.16015 0.1953,0.23047 0.4492,0.34571 0.7617,0.34571 0.2305,0 0.4287,-0.07324 0.5948,-0.21973 0.166,-0.14648 0.2851,-0.37695 0.3574,-0.69141 z"
         id="path8333" /><path
         clip-path="url(#TextBounds-7)"
         d="M 33.316,4.33937 34.7838,2.09816 33.4537,0.0444442 h 1.0137 L 35.3287,1.42433 36.1725,0.0444442 h 1.0048 L 35.8414,2.13038 37.3092,4.33937 h -1.0459 l -0.9522,-1.48536 -0.955,1.48536 z"
         id="path8335" /></g></g></g></svg>
